<svg version="1.1" id="Layer_1" xmlns="http://www.w3.org/2000/svg" xmlns:xlink="http://www.w3.org/1999/xlink" x="0px" y="0px"
	 width="100%" viewBox="0 0 165 153" enable-background="new 0 0 165 153" xml:space="preserve">
<path fill="#FDF9F9" opacity="1.000000" stroke="none" 
	d="
M28.000000,154.000000 
	C19.006771,154.000000 10.013541,154.000000 1.015234,154.000000 
	C1.010156,103.045135 1.010156,52.090275 1.010156,1.067704 
	C55.913418,1.067704 110.826942,1.067704 165.870239,1.067704 
	C165.870239,51.999813 165.870239,102.999847 165.872620,153.999939 
	C138.229111,154.000000 110.583214,154.000000 82.259453,153.528320 
	C82.622864,152.716354 83.663918,152.082443 84.705452,152.081665 
	C94.154869,152.074585 103.604370,152.178070 113.381073,152.492157 
	C119.520638,152.827667 125.334618,153.049271 131.144852,152.975769 
	C136.744278,152.904907 142.339828,152.529236 148.303772,152.182404 
	C149.430313,152.045456 150.190140,152.013596 151.130112,151.954590 
	C151.550766,151.855377 151.746414,151.718964 152.174286,151.371613 
	C152.660065,151.213379 152.868729,151.201752 153.316833,151.424042 
	C156.413956,152.063690 158.095810,151.071915 158.111389,147.613098 
	C159.236221,145.194366 160.225922,143.101654 161.544159,140.928040 
	C161.743393,137.611343 161.614090,134.375549 161.410004,130.668701 
	C161.507523,113.131767 161.679825,96.065887 162.143585,78.796585 
	C162.175797,74.684731 161.916550,70.776299 161.689087,66.409805 
	C161.832184,50.301872 161.943497,34.651997 162.370438,18.949667 
	C162.221313,17.242910 161.756546,15.588601 161.143341,13.789081 
	C160.994934,13.643867 160.681793,13.371088 160.617371,13.074102 
	C160.134079,12.090652 159.715195,11.404189 159.219513,10.435077 
	C158.738113,9.492540 158.333511,8.832654 157.948105,7.808849 
	C158.130051,3.701292 155.750275,4.694065 153.377411,5.117452 
	C152.721481,4.981768 152.354294,4.864682 151.772369,4.531626 
	C150.965378,4.247640 150.373077,4.179625 149.325745,4.120334 
	C137.240768,4.018506 125.610863,3.907955 113.654953,3.547293 
	C95.886276,3.197639 78.443619,3.098095 60.533577,3.022438 
	C54.680180,3.158715 49.294151,3.271108 43.447533,3.351013 
	C36.692844,3.320975 30.398756,3.323426 23.678917,3.194818 
	C21.188242,3.053641 19.123314,3.043522 16.765835,3.023626 
	C15.983637,3.282399 15.493987,3.550950 14.692839,3.976576 
	C12.434128,5.583782 10.486917,7.033913 8.270941,8.715863 
	C7.019152,11.724294 5.191534,14.497469 5.180224,17.278032 
	C5.019327,56.836922 5.104283,96.396805 5.056947,136.213898 
	C5.015625,136.646896 5.047227,136.822464 5.006079,137.327637 
	C5.325007,138.430649 5.716686,139.204056 6.048051,140.313263 
	C6.000508,141.099777 6.013279,141.550476 5.988031,142.359528 
	C7.418601,147.231598 10.894156,149.608765 15.270823,151.474457 
	C16.094973,151.748642 16.696278,151.812256 17.737143,151.807266 
	C21.008085,151.753342 23.847776,151.661774 26.663067,151.882095 
	C27.160910,151.921036 27.556950,153.260895 28.000000,154.000000 
z"/>
<path fill="#D14655" opacity="1.000000" stroke="none" 
	d="
M28.468403,154.000000 
	C27.556950,153.260895 27.160910,151.921036 26.663067,151.882095 
	C23.847776,151.661774 21.008085,151.753342 17.515982,151.590378 
	C16.252831,151.382690 15.650403,151.323288 15.047976,151.263885 
	C10.894156,149.608765 7.418601,147.231598 6.344528,142.400864 
	C8.508524,142.718506 10.278004,143.353149 12.446233,143.999359 
	C15.951103,144.796616 19.057001,146.230667 22.163391,146.231735 
	C28.436676,146.233887 34.710228,145.457642 40.920349,145.370422 
	C38.109303,146.884201 35.361576,148.029999 32.613850,149.175797 
	C40.752083,150.003616 48.791626,150.101898 56.827972,149.983292 
	C73.951515,149.730576 91.072479,149.214615 108.196350,149.110336 
	C116.650764,149.058853 125.109695,149.671494 133.565826,150.002945 
	C141.973526,150.332489 150.345627,150.550232 156.959183,144.399292 
	C155.939377,146.492523 154.964783,148.216019 153.855392,150.072205 
	C153.506195,150.533295 153.291794,150.861710 153.077377,151.190125 
	C152.868729,151.201752 152.660065,151.213379 151.979263,151.341309 
	C151.225327,151.530090 151.039612,151.704803 150.949982,151.981735 
	C150.190140,152.013596 149.430313,152.045456 147.846130,152.102249 
	C135.699127,152.167847 124.376488,152.208527 113.053848,152.249191 
	C103.604370,152.178070 94.154869,152.074585 84.705452,152.081665 
	C83.663918,152.082443 82.622864,152.716354 81.790794,153.528320 
	C74.645752,154.000000 67.291496,154.000000 59.860371,153.637756 
	C55.700027,153.000458 51.616554,152.725403 47.533085,152.450348 
	C47.688725,152.966904 47.844360,153.483444 48.000000,154.000000 
	C41.645603,154.000000 35.291203,154.000000 28.468403,154.000000 
z"/>
<path fill="#FDF9F9" opacity="1.000000" stroke="none" 
	d="
M48.458069,154.000000 
	C47.844360,153.483444 47.688725,152.966904 47.533085,152.450348 
	C51.616554,152.725403 55.700027,153.000458 59.391747,153.637756 
	C55.638714,154.000000 52.277424,154.000000 48.458069,154.000000 
z"/>
<path fill="#D33C4C" opacity="1.000000" stroke="none" 
	d="
M12.047482,143.987793 
	C10.278004,143.353149 8.508524,142.718506 6.382548,142.042542 
	C6.013279,141.550476 6.000508,141.099777 6.277211,140.102386 
	C6.070735,138.703140 5.574783,137.850571 5.078832,136.998016 
	C5.047227,136.822464 5.015625,136.646896 5.325656,135.903748 
	C5.778306,133.520142 5.984201,131.704208 5.986217,129.888062 
	C6.020565,98.921532 6.029661,67.954979 6.386415,37.053860 
	C8.823277,38.415173 10.918044,39.711056 13.014631,41.446358 
	C12.693461,75.919785 12.370471,109.953789 12.047482,143.987793 
z"/>
<path fill="#BE4A57" opacity="1.000000" stroke="none" 
	d="
M24.104666,3.325876 
	C30.398756,3.323426 36.692844,3.320975 43.807468,3.553774 
	C50.162338,3.754235 55.696674,3.719447 61.684280,3.697829 
	C79.418686,3.739801 96.699821,3.768603 113.980957,3.797404 
	C125.610863,3.907955 137.240768,4.018506 149.545624,4.331903 
	C150.809418,4.605699 151.398254,4.676649 151.987091,4.747598 
	C152.354294,4.864682 152.721481,4.981768 153.540894,5.349864 
	C154.415771,5.966581 154.838455,6.332287 155.169952,6.801808 
	C155.078781,6.905624 154.893906,7.110993 154.482971,7.065631 
	C152.458282,6.681054 150.851959,6.090283 149.229584,6.042277 
	C135.814941,5.645344 122.398529,5.280110 108.980186,5.047513 
	C100.755409,4.904943 92.526306,5.010805 84.299141,5.007762 
	C64.863785,5.000574 45.414810,4.590174 26.001646,5.243417 
	C20.413496,5.431455 14.075014,5.103229 8.913233,8.891105 
	C8.789425,8.754777 8.539707,8.484044 8.539707,8.484044 
	C10.486917,7.033913 12.434128,5.583782 14.998003,4.022466 
	C16.023661,3.873966 16.432653,3.836653 17.260061,3.864419 
	C19.820539,3.728291 21.962603,3.527083 24.104666,3.325876 
z"/>
<path fill="#BE4A57" opacity="1.000000" stroke="none" 
	d="
M153.990189,149.939514 
	C154.964783,148.216019 155.939377,146.492523 157.232117,144.143250 
	C158.370117,141.073334 159.912689,138.625961 159.901688,136.185562 
	C159.730347,98.123871 159.358185,60.063087 159.190308,21.636976 
	C159.562454,18.849844 159.776657,16.427830 160.167923,13.851831 
	C160.344971,13.697846 160.681793,13.371088 160.681793,13.371088 
	C160.681793,13.371088 160.994934,13.643867 161.127594,14.154808 
	C161.525116,16.111204 161.789963,17.556660 162.054794,19.002117 
	C161.943497,34.651997 161.832184,50.301872 161.429047,66.739014 
	C161.375519,71.350853 161.613831,75.175430 161.852142,79.000008 
	C161.679825,96.065887 161.507523,113.131767 161.303589,131.100067 
	C161.253159,135.004639 161.234375,138.006790 161.215607,141.008942 
	C160.225922,143.101654 159.236221,145.194366 157.740326,147.688568 
	C156.152817,148.706558 155.071503,149.323029 153.990189,149.939514 
z"/>
<path fill="#BE4A57" opacity="1.000000" stroke="none" 
	d="
M6.044321,36.988426 
	C6.029661,67.954979 6.020565,98.921532 5.986217,129.888062 
	C5.984201,131.704208 5.778306,133.520142 5.398581,135.646301 
	C5.104283,96.396805 5.019327,56.836922 5.180224,17.278032 
	C5.191534,14.497469 7.019152,11.724294 8.270941,8.715863 
	C8.539707,8.484044 8.789425,8.754777 8.903858,9.219755 
	C9.015744,10.123745 9.013198,10.562755 8.766050,11.167963 
	C8.346376,11.885041 8.171302,12.435922 7.719515,13.253695 
	C7.283811,15.339500 7.124819,17.158411 6.684586,19.280460 
	C6.288144,23.726578 6.172942,27.869558 6.046561,32.427258 
	C6.038361,34.224125 6.041341,35.606277 6.044321,36.988426 
z"/>
<path fill="#FDE0E3" opacity="1.000000" stroke="none" 
	d="
M113.654953,3.547293 
	C96.699821,3.768603 79.418686,3.739801 61.625404,3.526953 
	C61.113258,3.342906 61.000954,2.998552 61.000954,2.998552 
	C78.443619,3.098095 95.886276,3.197639 113.654953,3.547293 
z"/>
<path fill="#FFF0EF" opacity="1.000000" stroke="none" 
	d="
M113.381073,152.492157 
	C124.376488,152.208527 135.699127,152.167847 147.479431,152.207336 
	C142.339828,152.529236 136.744278,152.904907 131.144852,152.975769 
	C125.334618,153.049271 119.520638,152.827667 113.381073,152.492157 
z"/>
<path fill="#FCF1F3" opacity="1.000000" stroke="none" 
	d="
M162.143585,78.796585 
	C161.613831,75.175430 161.375519,71.350853 161.397247,67.197067 
	C161.916550,70.776299 162.175797,74.684731 162.143585,78.796585 
z"/>
<path fill="#E98F98" opacity="1.000000" stroke="none" 
	d="
M60.533577,3.022438 
	C61.000954,2.998552 61.113258,3.342906 61.172134,3.513782 
	C55.696674,3.719447 50.162338,3.754235 44.268066,3.586262 
	C49.294151,3.271108 54.680180,3.158715 60.533577,3.022438 
z"/>
<path fill="#FCF1F3" opacity="1.000000" stroke="none" 
	d="
M153.855392,150.072205 
	C155.071503,149.323029 156.152817,148.706558 157.605194,148.014603 
	C158.095810,151.071915 156.413956,152.063690 153.316833,151.424042 
	C153.291794,150.861710 153.506195,150.533295 153.855392,150.072205 
z"/>
<path fill="#FCF1F3" opacity="1.000000" stroke="none" 
	d="
M161.544159,140.928040 
	C161.234375,138.006790 161.253159,135.004639 161.378357,131.571121 
	C161.614090,134.375549 161.743393,137.611343 161.544159,140.928040 
z"/>
<path fill="#BE4A57" opacity="1.000000" stroke="none" 
	d="
M157.928925,8.172766 
	C158.333511,8.832654 158.738113,9.492540 159.110565,10.539047 
	C159.078430,10.925666 158.860474,11.133532 158.540192,11.048850 
	C157.111237,9.679777 156.002563,8.395386 154.893906,7.110994 
	C154.893906,7.110993 155.078781,6.905624 155.458710,6.905569 
	C156.535400,7.327930 157.232162,7.750347 157.928925,8.172766 
z"/>
<path fill="#FCF1F3" opacity="1.000000" stroke="none" 
	d="
M162.370438,18.949667 
	C161.789963,17.556660 161.525116,16.111204 161.276016,14.300020 
	C161.756546,15.588601 162.221313,17.242910 162.370438,18.949667 
z"/>
<path fill="#FCF1F3" opacity="1.000000" stroke="none" 
	d="
M157.948120,7.808847 
	C157.232162,7.750347 156.535400,7.327930 155.549896,6.801753 
	C154.838455,6.332287 154.415771,5.966581 153.829620,5.368464 
	C155.750275,4.694065 158.130051,3.701292 157.948120,7.808847 
z"/>
<path fill="#E98F98" opacity="1.000000" stroke="none" 
	d="
M23.678917,3.194818 
	C21.962603,3.527083 19.820539,3.728291 17.313845,3.672867 
	C16.949213,3.416235 17.058386,3.033403 17.058386,3.033403 
	C19.123314,3.043522 21.188242,3.053641 23.678917,3.194818 
z"/>
<path fill="#D14655" opacity="1.000000" stroke="none" 
	d="
M5.006081,137.327637 
	C5.574783,137.850571 6.070735,138.703140 6.337525,139.766571 
	C5.716686,139.204056 5.325007,138.430649 5.006081,137.327637 
z"/>
<path fill="#BE4A57" opacity="1.000000" stroke="none" 
	d="
M159.187378,10.821695 
	C159.715195,11.404189 160.134079,12.090652 160.617371,13.074102 
	C160.681793,13.371088 160.344971,13.697846 159.918671,13.647828 
	C159.281754,12.776383 159.071106,11.954958 158.860474,11.133532 
	C158.860474,11.133532 159.078430,10.925666 159.187378,10.821695 
z"/>
<path fill="#FDE0E3" opacity="1.000000" stroke="none" 
	d="
M151.772369,4.531627 
	C151.398254,4.676649 150.809418,4.605699 150.000687,4.323179 
	C150.373077,4.179625 150.965378,4.247640 151.772369,4.531627 
z"/>
<path fill="#FDE0E3" opacity="1.000000" stroke="none" 
	d="
M16.765835,3.023626 
	C17.058386,3.033403 16.949213,3.416235 16.895430,3.607787 
	C16.432653,3.836653 16.023661,3.873966 15.309504,3.865390 
	C15.493987,3.550950 15.983637,3.282399 16.765835,3.023626 
z"/>
<path fill="#FFF0EF" opacity="1.000000" stroke="none" 
	d="
M15.270823,151.474457 
	C15.650403,151.323288 16.252831,151.382690 17.076420,151.658981 
	C16.696278,151.812256 16.094973,151.748642 15.270823,151.474457 
z"/>
<path fill="#FCF1F3" opacity="1.000000" stroke="none" 
	d="
M151.130112,151.954590 
	C151.039612,151.704803 151.225327,151.530090 151.702179,151.487915 
	C151.746414,151.718964 151.550766,151.855377 151.130112,151.954590 
z"/>
<path fill="#D63848" opacity="1.000000" stroke="none" 
	d="
M159.032349,22.002094 
	C159.358185,60.063087 159.730347,98.123871 159.901688,136.185562 
	C159.912689,138.625961 158.370117,141.073334 157.277328,143.773514 
	C150.345627,150.550232 141.973526,150.332489 133.565826,150.002945 
	C125.109695,149.671494 116.650764,149.058853 108.196350,149.110336 
	C91.072479,149.214615 73.951515,149.730576 56.827972,149.983292 
	C48.791626,150.101898 40.752083,150.003616 32.613850,149.175797 
	C35.361576,148.029999 38.109303,146.884201 41.389065,145.368988 
	C46.946045,144.994019 51.970993,144.988464 57.464874,144.989868 
	C87.266228,145.006653 116.598656,145.023056 145.931076,145.021683 
	C153.120468,145.021347 153.978745,144.174637 153.985275,137.003616 
	C154.004089,116.337585 153.992523,95.671539 153.998657,74.538239 
	C154.024765,69.040565 154.045120,64.010147 154.217117,58.891373 
	C154.266174,58.541527 154.163605,58.280041 154.048599,57.579620 
	C154.043640,55.092060 154.051132,53.043427 154.396927,50.929890 
	C156.633957,49.194122 156.735931,47.846893 154.027573,46.671017 
	C154.006180,45.894638 153.996948,45.450912 154.242264,44.811424 
	C154.002792,43.412849 153.508774,42.210037 152.995941,40.709709 
	C152.954468,40.214745 152.931793,40.017303 152.951752,39.596603 
	C152.994370,39.373344 153.204468,38.970383 153.418304,38.788868 
	C153.779984,38.071270 153.927841,37.535187 154.336075,36.785866 
	C155.933578,35.312420 157.270737,34.052212 158.938278,32.480618 
	C157.015137,31.285696 155.179291,30.145004 153.251709,28.593803 
	C153.226532,26.788445 153.293106,25.393595 153.701981,23.990545 
	C155.706985,23.322262 157.369659,22.662178 159.032349,22.002094 
z"/>
<path fill="#CA4D5A" opacity="1.000000" stroke="none" 
	d="
M152.909119,39.819855 
	C152.931793,40.017303 152.954468,40.214745 152.528549,40.708344 
	C145.125916,41.331554 138.169342,41.975475 131.218338,41.920380 
	C116.269043,41.801880 101.323097,41.297546 86.374702,41.007034 
	C81.464958,40.911621 76.551865,40.986629 71.640305,40.986973 
	C54.653175,40.988163 37.665825,40.955097 20.679316,41.058750 
	C19.278406,41.067295 17.883184,42.007309 16.485319,42.514530 
	C16.615362,43.016853 16.745403,43.519176 16.875446,44.021500 
	C18.673538,44.021500 20.471632,44.021553 22.269724,44.021488 
	C63.904869,44.019970 105.540031,44.002903 147.175095,44.059147 
	C149.446396,44.062214 151.716858,44.677097 153.987717,45.007187 
	C153.996948,45.450912 154.006180,45.894638 154.018036,47.070068 
	C154.033310,48.866112 154.045959,49.930454 154.058624,50.994797 
	C154.051132,53.043427 154.043640,55.092060 154.039429,57.819801 
	C154.042679,58.498913 154.065491,58.979733 154.065491,58.979733 
	C154.045120,64.010147 154.024765,69.040565 153.784470,74.538925 
	C153.564529,75.006859 153.136032,75.011055 153.060913,74.546616 
	C152.985779,64.835197 152.985779,55.588219 152.985779,46.195324 
	C106.133209,46.195324 60.091492,46.195324 13.709826,46.195324 
	C13.709826,48.183422 13.712604,49.670403 13.709416,51.157368 
	C13.648708,79.484741 13.587921,107.812111 13.525558,136.139481 
	C13.511399,142.570847 14.101714,143.254105 20.524677,143.301987 
	C31.521906,143.383987 42.520489,143.299088 53.517452,143.399292 
	C70.662849,143.555542 87.807358,143.807953 104.486618,144.026352 
	C90.076363,144.030762 76.131569,143.995209 62.187344,144.068436 
	C60.455326,144.077515 58.726334,144.663986 56.995937,144.982910 
	C51.970993,144.988464 46.946045,144.994019 41.452385,145.001007 
	C34.710228,145.457642 28.436676,146.233887 22.163391,146.231735 
	C19.057001,146.230667 15.951103,144.796616 12.446232,143.999359 
	C12.370471,109.953789 12.693461,75.919785 13.011197,41.107487 
	C13.000911,39.877590 12.995878,39.425987 13.175874,38.985497 
	C13.360901,38.996609 13.729067,39.033447 14.210258,39.108002 
	C60.764004,39.394989 106.836563,39.607422 152.909119,39.819855 
z"/>
<path fill="#D53647" opacity="1.000000" stroke="none" 
	d="
M12.990847,38.974380 
	C12.995878,39.425987 13.000911,39.877590 13.009377,40.668068 
	C10.918044,39.711056 8.823277,38.415173 6.386416,37.053860 
	C6.041341,35.606277 6.038361,34.224125 6.412309,32.338715 
	C9.002438,27.578999 9.349789,23.296917 6.965828,18.977324 
	C7.124819,17.158411 7.283811,15.339500 8.052396,13.253692 
	C9.291866,12.632751 9.921742,12.278708 10.551619,11.924664 
	C10.037963,11.617031 9.524306,11.309398 9.010651,11.001765 
	C9.013198,10.562755 9.015744,10.123745 9.027666,9.356083 
	C14.075014,5.103229 20.413496,5.431455 26.001646,5.243417 
	C45.414810,4.590174 64.863785,5.000574 84.299141,5.007762 
	C92.526306,5.010805 100.755409,4.904943 108.980186,5.047513 
	C122.398529,5.280110 135.814941,5.645344 149.229584,6.042277 
	C150.851959,6.090283 152.458282,6.681054 154.482971,7.065631 
	C156.002563,8.395386 157.111237,9.679777 158.540192,11.048850 
	C159.071106,11.954958 159.281754,12.776383 159.741638,13.801813 
	C159.776657,16.427830 159.562454,18.849844 159.190292,21.636978 
	C157.369659,22.662178 155.706985,23.322262 153.609253,23.582993 
	C153.226257,21.797014 153.278290,20.410391 153.670441,18.906971 
	C155.933624,13.288318 155.807236,13.124022 147.561264,11.010481 
	C133.726578,10.987092 120.363762,10.973454 106.694031,10.679350 
	C77.134048,10.276177 47.880932,10.117057 18.628147,10.164451 
	C17.463020,10.166338 16.301075,12.130385 15.085596,13.123269 
	C15.033544,13.066342 15.170497,13.137362 14.800198,13.122847 
	C13.619048,14.406303 12.808198,15.704275 11.693687,17.040037 
	C11.596517,18.050835 11.803008,19.023842 12.010839,20.463184 
	C12.006662,25.620916 12.001145,30.312313 11.627701,35.010826 
	C10.593265,35.634380 9.926754,36.250824 9.260243,36.867268 
	C10.179062,37.237831 11.097880,37.608395 12.227296,38.092262 
	C12.690168,38.412960 12.874486,38.669228 12.990847,38.974380 
z"/>
<path fill="#D33C4C" opacity="1.000000" stroke="none" 
	d="
M6.684587,19.280460 
	C9.349789,23.296917 9.002438,27.578999 6.423489,31.923996 
	C6.172942,27.869558 6.288144,23.726578 6.684587,19.280460 
z"/>
<path fill="#D33C4C" opacity="1.000000" stroke="none" 
	d="
M8.766050,11.167963 
	C9.524306,11.309398 10.037963,11.617031 10.551619,11.924664 
	C9.921742,12.278708 9.291866,12.632751 8.329109,12.986797 
	C8.171302,12.435922 8.346376,11.885041 8.766050,11.167963 
z"/>
<path fill="#FDF6F7" opacity="1.000000" stroke="none" 
	d="
M153.330307,19.023766 
	C153.278290,20.410391 153.226257,21.797014 153.266937,23.591194 
	C153.293106,25.393595 153.226532,26.788445 153.159851,29.028324 
	C153.196869,32.236713 153.234009,34.600075 153.178406,37.291595 
	C153.125275,38.069965 153.164871,38.520172 153.204468,38.970383 
	C153.204468,38.970383 152.994370,39.373344 152.951752,39.596600 
	C106.836563,39.607422 60.764004,39.394989 14.216745,38.638260 
	C13.621649,31.662525 13.501253,25.231085 13.523268,18.481392 
	C13.676100,17.469589 13.686521,16.776033 13.839266,15.783226 
	C14.377892,14.701770 14.774195,13.919566 15.170496,13.137362 
	C15.170497,13.137362 15.033544,13.066342 15.479217,12.993506 
	C18.356895,12.589138 20.788343,11.974187 23.220991,11.969401 
	C51.152222,11.914457 79.083633,11.952207 107.476669,12.042871 
	C114.917221,12.097011 121.896111,12.073550 129.258484,12.202381 
	C134.965912,12.403106 140.290237,12.513464 145.613663,12.480986 
	C150.125961,12.453457 152.946930,14.260198 153.330307,19.023766 
M51.811516,29.180696 
	C56.397751,29.293552 60.983986,29.406410 65.945206,29.407074 
	C66.192085,29.289555 66.369987,29.105429 67.114395,28.399553 
	C68.666031,25.601292 68.257439,22.498636 65.203575,22.115990 
	C60.830761,21.568077 56.272404,22.500980 51.224201,23.126133 
	C51.264542,24.911921 51.304886,26.697708 51.811516,29.180696 
M38.515671,27.260668 
	C38.769375,25.948950 39.023083,24.637232 39.345394,22.970800 
	C34.425953,22.970800 30.192730,22.970800 25.264452,23.032671 
	C24.881395,24.831261 23.736818,26.919813 24.286442,28.363268 
	C25.205105,30.775923 36.576866,30.866226 38.537693,28.744881 
	C38.597477,28.680202 38.244846,28.234312 38.515671,27.260668 
M81.905090,30.108627 
	C84.890747,30.114998 87.876480,30.111259 90.862053,30.130659 
	C93.688057,30.149025 95.731247,28.772625 94.941216,25.987534 
	C94.465797,24.311558 92.425438,22.403509 90.713348,21.915606 
	C88.255524,21.215181 85.383240,21.338604 82.826706,21.831043 
	C81.046570,22.173931 78.180420,23.685209 78.147324,24.747696 
	C78.093307,26.481388 79.955116,28.274765 81.905090,30.108627 
z"/>
<path fill="#D5364A" opacity="1.000000" stroke="none" 
	d="
M154.242264,44.811424 
	C151.716858,44.677097 149.446396,44.062214 147.175095,44.059147 
	C105.540031,44.002903 63.904869,44.019970 22.269724,44.021488 
	C20.471632,44.021553 18.673538,44.021500 16.875446,44.021500 
	C16.745403,43.519176 16.615362,43.016853 16.485319,42.514530 
	C17.883184,42.007309 19.278406,41.067295 20.679316,41.058750 
	C37.665825,40.955097 54.653175,40.988163 71.640305,40.986973 
	C76.551865,40.986629 81.464958,40.911621 86.374702,41.007034 
	C101.323097,41.297546 116.269043,41.801880 131.218338,41.920380 
	C138.169342,41.975475 145.125916,41.331554 152.547363,41.005863 
	C153.508774,42.210037 154.002792,43.412849 154.242264,44.811424 
z"/>
<path fill="#BB4B57" opacity="1.000000" stroke="none" 
	d="
M153.136032,75.011055 
	C153.136032,75.011055 153.564529,75.006859 153.778717,75.006180 
	C153.992523,95.671539 154.004089,116.337585 153.985275,137.003616 
	C153.978745,144.174637 153.120468,145.021347 145.931076,145.021683 
	C116.598656,145.023056 87.266228,145.006653 57.464874,144.989868 
	C58.726334,144.663986 60.455326,144.077515 62.187344,144.068436 
	C76.131569,143.995209 90.076363,144.030762 104.954575,143.953613 
	C118.533592,143.881744 131.179016,143.895920 143.824432,143.894455 
	C151.398285,143.893585 152.825882,142.451004 152.859085,134.895966 
	C152.946793,114.934303 153.043121,94.972687 153.136032,75.011055 
z"/>
<path fill="#D53647" opacity="1.000000" stroke="none" 
	d="
M153.271149,36.963432 
	C153.234009,34.600075 153.196869,32.236713 153.251587,29.438835 
	C155.179291,30.145004 157.015137,31.285696 158.938278,32.480618 
	C157.270737,34.052212 155.933578,35.312420 154.134842,36.769180 
	C153.673248,36.965736 153.271133,36.963432 153.271149,36.963432 
z"/>
<path fill="#D5364A" opacity="1.000000" stroke="none" 
	d="
M154.396912,50.929890 
	C154.045959,49.930454 154.033310,48.866112 154.030197,47.402718 
	C156.735931,47.846893 156.633957,49.194122 154.396912,50.929890 
z"/>
<path fill="#CA4D5A" opacity="1.000000" stroke="none" 
	d="
M153.178406,37.291595 
	C153.271133,36.963432 153.673248,36.965736 153.874481,36.982422 
	C153.927841,37.535187 153.779984,38.071270 153.418304,38.788868 
	C153.164871,38.520172 153.125275,38.069965 153.178406,37.291595 
z"/>
<path fill="#D5364A" opacity="1.000000" stroke="none" 
	d="
M154.217117,58.891373 
	C154.065491,58.979733 154.042679,58.498913 154.051849,58.258732 
	C154.163605,58.280041 154.266174,58.541527 154.217117,58.891373 
z"/>
<path fill="#FDFBFB" opacity="1.000000" stroke="none" 
	d="
M153.060913,74.546616 
	C153.043121,94.972687 152.946793,114.934303 152.859085,134.895966 
	C152.825882,142.451004 151.398285,143.893585 143.824432,143.894455 
	C131.179016,143.895920 118.533592,143.881744 105.420212,143.946884 
	C87.807358,143.807953 70.662849,143.555542 53.517452,143.399292 
	C42.520489,143.299088 31.521906,143.383987 20.524677,143.301987 
	C14.101714,143.254105 13.511399,142.570847 13.525558,136.139481 
	C13.587921,107.812111 13.648708,79.484741 13.709416,51.157368 
	C13.712604,49.670403 13.709826,48.183422 13.709826,46.195324 
	C60.091492,46.195324 106.133209,46.195324 152.985779,46.195324 
	C152.985779,55.588219 152.985779,64.835197 153.060913,74.546616 
M39.356483,88.096397 
	C39.078312,88.591095 38.800144,89.085800 38.517387,89.614136 
	C38.517387,89.614136 38.484280,89.599274 37.780968,89.756660 
	C33.795280,92.534584 33.896137,95.607124 37.155785,98.868210 
	C42.219078,103.933754 47.295254,108.986450 52.377480,114.033012 
	C54.641392,116.281029 57.214043,118.306000 60.054165,115.272041 
	C62.763672,112.377602 60.401390,110.097000 58.325294,108.070511 
	C53.814888,103.667870 49.266087,99.304565 44.673695,94.867905 
	C46.385681,92.886421 47.673306,91.396095 49.502117,89.694214 
	C49.994427,89.113136 50.486740,88.532059 51.575447,87.662682 
	C54.378307,84.864212 57.484684,82.292824 59.832947,79.154228 
	C60.757656,77.918289 60.740376,74.691803 59.779552,73.695831 
	C58.836010,72.717781 55.502804,72.612648 54.351257,73.536560 
	C50.910976,76.296753 48.025997,79.749069 44.945286,82.961189 
	C44.945286,82.961189 44.950378,82.937019 44.339752,83.162399 
	C42.855148,84.748169 41.370541,86.333946 39.977577,87.978355 
	C39.977577,87.978355 39.922367,87.884605 39.356483,88.096397 
M121.395515,83.104622 
	C118.571686,80.295692 115.680069,77.550804 112.946129,74.656960 
	C110.871994,72.461533 108.662430,71.125481 106.169060,73.661690 
	C103.758003,76.114166 104.949661,78.348526 107.051315,80.537018 
	C111.533546,85.204437 115.855453,90.025803 120.309669,94.856339 
	C115.923485,99.569954 111.585754,103.780403 107.877548,108.486839 
	C106.740707,109.929703 106.367867,113.421051 107.331604,114.764824 
	C109.212891,117.387917 111.847267,116.333260 114.026573,114.113686 
	C119.026566,109.021278 124.104996,104.003708 129.234497,99.041458 
	C132.321960,96.054665 132.019516,93.365547 129.013321,90.568687 
	C126.584045,88.308594 124.273911,85.920448 121.395515,83.104622 
M91.509125,64.834846 
	C89.957626,66.019356 87.528847,66.896584 86.989746,68.435699 
	C81.341545,84.561089 75.986099,100.789185 70.576103,116.997696 
	C69.649689,119.773254 69.651428,122.497612 72.933640,123.591835 
	C76.278282,124.706863 77.739380,122.394577 78.664467,119.644089 
	C84.059715,103.602898 89.479576,87.569870 94.816216,71.509201 
	C95.716515,68.799751 95.716171,66.176682 91.509125,64.834846 
z"/>
<path fill="#C04C59" opacity="1.000000" stroke="none" 
	d="
M13.380857,18.799643 
	C13.501253,25.231085 13.621649,31.662525 13.735556,38.563705 
	C13.729067,39.033447 13.360901,38.996609 13.175874,38.985497 
	C12.874486,38.669228 12.690168,38.412960 12.225344,37.720757 
	C12.007072,36.491863 12.001350,35.747787 11.995627,35.003712 
	C12.001145,30.312313 12.006662,25.620916 12.012374,20.088867 
	C12.007495,18.499559 12.002421,17.750904 11.997349,17.002247 
	C12.808198,15.704275 13.619048,14.406303 14.800197,13.122847 
	C14.774195,13.919566 14.377892,14.701770 13.658485,15.958080 
	C13.350540,17.221338 13.365699,18.010490 13.380857,18.799643 
z"/>
<path fill="#C04C59" opacity="1.000000" stroke="none" 
	d="
M107.014999,11.965273 
	C79.083633,11.952207 51.152222,11.914457 23.220991,11.969401 
	C20.788343,11.974187 18.356895,12.589138 15.531269,13.050433 
	C16.301075,12.130385 17.463020,10.166338 18.628147,10.164451 
	C47.880932,10.117057 77.134048,10.276177 106.693314,10.931007 
	C107.004684,11.630513 107.009842,11.797894 107.014999,11.965273 
z"/>
<path fill="#CA4D5A" opacity="1.000000" stroke="none" 
	d="
M153.670441,18.906971 
	C152.946930,14.260198 150.125961,12.453457 145.613663,12.480986 
	C140.290237,12.513464 134.965912,12.403106 129.734406,12.143288 
	C135.895599,11.628012 141.964371,11.324121 148.033142,11.020232 
	C155.807236,13.124022 155.933624,13.288318 153.670441,18.906971 
z"/>
<path fill="#AE3B47" opacity="1.000000" stroke="none" 
	d="
M147.561264,11.010481 
	C141.964371,11.324121 135.895599,11.628012 129.350922,11.990995 
	C121.896111,12.073550 114.917221,12.097011 107.476669,12.042871 
	C107.009842,11.797894 107.004684,11.630513 107.000244,11.211473 
	C120.363762,10.973454 133.726578,10.987092 147.561264,11.010481 
z"/>
<path fill="#D33C4C" opacity="1.000000" stroke="none" 
	d="
M11.627701,35.010826 
	C12.001350,35.747787 12.007072,36.491863 12.014748,37.607449 
	C11.097880,37.608395 10.179062,37.237831 9.260243,36.867268 
	C9.926754,36.250824 10.593265,35.634380 11.627701,35.010826 
z"/>
<path fill="#D33C4C" opacity="1.000000" stroke="none" 
	d="
M11.693686,17.040037 
	C12.002421,17.750904 12.007495,18.499559 12.011034,19.622532 
	C11.803008,19.023842 11.596517,18.050835 11.693686,17.040037 
z"/>
<path fill="#CB4654" opacity="1.000000" stroke="none" 
	d="
M81.456841,30.075794 
	C79.955116,28.274765 78.093307,26.481388 78.147324,24.747696 
	C78.180420,23.685209 81.046570,22.173931 82.826706,21.831043 
	C85.383240,21.338604 88.255524,21.215181 90.713348,21.915606 
	C92.425438,22.403509 94.465797,24.311558 94.941216,25.987534 
	C95.731247,28.772625 93.688057,30.149025 90.862053,30.130659 
	C87.876480,30.111259 84.890747,30.114998 81.456841,30.075794 
z"/>
<path fill="#D9384A" opacity="1.000000" stroke="none" 
	d="
M25.959509,22.970800 
	C30.192730,22.970800 34.425953,22.970800 39.345394,22.970800 
	C39.023083,24.637232 38.769375,25.948950 37.831928,27.622826 
	C35.013237,27.998734 32.848980,27.792755 30.749542,28.072771 
	C26.601738,28.625986 25.486761,26.612232 25.959509,22.970800 
z"/>
<path fill="#C0515F" opacity="1.000000" stroke="none" 
	d="
M25.611980,23.001736 
	C25.486761,26.612232 26.601738,28.625986 30.749542,28.072771 
	C32.848980,27.792755 35.013237,27.998734 37.616337,27.975567 
	C38.244846,28.234312 38.597477,28.680202 38.537693,28.744881 
	C36.576866,30.866226 25.205105,30.775923 24.286442,28.363268 
	C23.736818,26.919813 24.881395,24.831261 25.611980,23.001736 
z"/>
<path fill="#BB4E5C" opacity="1.000000" stroke="none" 
	d="
M51.793274,22.801596 
	C56.272404,22.500980 60.830761,21.568077 65.203575,22.115990 
	C68.257439,22.498636 68.666031,25.601292 66.696907,28.398468 
	C66.279419,28.397385 65.988968,27.991705 65.994377,27.579233 
	C66.204887,24.292042 64.951591,22.875587 61.986183,22.981251 
	C58.711731,23.097923 55.433331,23.103716 52.065948,23.068607 
	C51.975243,22.979412 51.793274,22.801596 51.793274,22.801596 
z"/>
<path fill="#BB4E5C" opacity="1.000000" stroke="none" 
	d="
M65.570221,29.519268 
	C60.983986,29.406410 56.397751,29.293552 51.749039,28.722725 
	C51.686562,28.264753 51.996529,28.003456 52.404896,28.016100 
	C56.868542,28.342657 60.923817,28.656569 65.123123,29.111717 
	C65.267159,29.252953 65.570221,29.519266 65.570221,29.519268 
z"/>
<path fill="#BB4E5C" opacity="1.000000" stroke="none" 
	d="
M51.515896,28.374125 
	C51.304886,26.697708 51.264542,24.911921 51.508736,22.963863 
	C51.793274,22.801596 51.975243,22.979412 52.011375,23.465294 
	C52.030514,25.301935 52.013519,26.652695 51.996529,28.003456 
	C51.996529,28.003456 51.686562,28.264753 51.515896,28.374125 
z"/>
<path fill="#CA4D5A" opacity="1.000000" stroke="none" 
	d="
M13.523268,18.481392 
	C13.365699,18.010490 13.350540,17.221338 13.516161,16.257332 
	C13.686521,16.776033 13.676100,17.469589 13.523268,18.481392 
z"/>
<path fill="#BB4E5C" opacity="1.000000" stroke="none" 
	d="
M66.379166,28.626041 
	C66.369987,29.105429 66.192085,29.289555 65.757713,29.463169 
	C65.570221,29.519266 65.267159,29.252953 65.243652,28.903675 
	C65.422676,28.293402 65.678947,28.105837 65.988968,27.991705 
	C65.988968,27.991705 66.279419,28.397385 66.379166,28.626041 
z"/>
<path fill="#CE4654" opacity="1.000000" stroke="none" 
	d="
M121.653214,83.346863 
	C124.273911,85.920448 126.584045,88.308594 129.013321,90.568687 
	C132.019516,93.365547 132.321960,96.054665 129.234497,99.041458 
	C124.104996,104.003708 119.026566,109.021278 114.026573,114.113686 
	C111.847267,116.333260 109.212891,117.387917 107.331604,114.764824 
	C106.367867,113.421051 106.740707,109.929703 107.877548,108.486839 
	C111.585754,103.780403 115.923485,99.569954 120.309669,94.856339 
	C115.855453,90.025803 111.533546,85.204437 107.051315,80.537018 
	C104.949661,78.348526 103.758003,76.114166 106.169060,73.661690 
	C108.662430,71.125481 110.871994,72.461533 112.946129,74.656960 
	C115.680069,77.550804 118.571686,80.295692 121.653214,83.346863 
z"/>
<path fill="#CD4553" opacity="1.000000" stroke="none" 
	d="
M91.913300,64.912338 
	C95.716171,66.176682 95.716515,68.799751 94.816216,71.509201 
	C89.479576,87.569870 84.059715,103.602898 78.664467,119.644089 
	C77.739380,122.394577 76.278282,124.706863 72.933640,123.591835 
	C69.651428,122.497612 69.649689,119.773254 70.576103,116.997696 
	C75.986099,100.789185 81.341545,84.561089 86.989746,68.435699 
	C87.528847,66.896584 89.957626,66.019356 91.913300,64.912338 
M78.019096,116.422920 
	C79.690750,112.852074 78.821243,109.945183 75.125595,106.611252 
	C75.085785,111.421761 77.006660,116.054054 72.185944,118.554359 
	C72.083595,118.607445 72.435036,120.237854 72.945473,120.580917 
	C73.503822,120.956192 74.811081,121.029549 75.232368,120.635788 
	C76.267975,119.667854 76.982361,118.356255 78.019096,116.422920 
z"/>
<path fill="#CD4655" opacity="1.000000" stroke="none" 
	d="
M48.960934,89.905777 
	C47.673306,91.396095 46.385681,92.886421 44.673695,94.867905 
	C49.266087,99.304565 53.814888,103.667870 58.325294,108.070511 
	C60.401390,110.097000 62.763672,112.377602 60.054165,115.272041 
	C57.214043,118.306000 54.641392,116.281029 52.377480,114.033012 
	C47.295254,108.986450 42.219078,103.933754 37.155785,98.868210 
	C33.896137,95.607124 33.795280,92.534584 38.233917,90.023125 
	C37.871410,91.590752 37.055950,92.891914 35.896709,94.741615 
	C37.833031,95.534767 39.517597,96.224792 41.271465,96.943207 
	C43.375381,93.672363 43.456264,88.663101 48.960934,89.905777 
z"/>
<path fill="#CF4B5A" opacity="1.000000" stroke="none" 
	d="
M44.924164,82.931107 
	C48.025997,79.749069 50.910976,76.296753 54.351257,73.536560 
	C55.502804,72.612648 58.836010,72.717781 59.779552,73.695831 
	C60.740376,74.691803 60.757656,77.918289 59.832947,79.154228 
	C57.484684,82.292824 54.378307,84.864212 51.135838,87.494247 
	C48.772209,85.860916 46.848186,84.396011 44.924164,82.931107 
z"/>
<path fill="#D44658" opacity="1.000000" stroke="none" 
	d="
M44.934723,82.946152 
	C46.848186,84.396011 48.772209,85.860916 50.837639,87.638397 
	C50.486740,88.532059 49.994427,89.113136 49.231525,89.799995 
	C43.456264,88.663101 43.375381,93.672363 41.271465,96.943207 
	C39.517597,96.224792 37.833031,95.534767 35.896709,94.741615 
	C37.055950,92.891914 37.871410,91.590752 38.585575,89.944427 
	C38.484280,89.599274 38.517387,89.614136 38.858765,89.613831 
	C39.440884,89.037224 39.681625,88.460915 39.922371,87.884605 
	C39.922367,87.884605 39.977577,87.978355 40.315319,87.970566 
	C43.815029,87.766373 45.096554,85.962082 44.950378,82.937019 
	C44.950378,82.937019 44.945286,82.961189 44.934723,82.946152 
z"/>
<path fill="#CD4655" opacity="1.000000" stroke="none" 
	d="
M44.645065,83.049713 
	C45.096554,85.962082 43.815029,87.766373 40.269497,87.941238 
	C41.370541,86.333946 42.855148,84.748169 44.645065,83.049713 
z"/>
<path fill="#CD4655" opacity="1.000000" stroke="none" 
	d="
M39.639427,87.990501 
	C39.681625,88.460915 39.440884,89.037224 38.861053,89.597015 
	C38.800144,89.085800 39.078312,88.591095 39.639427,87.990501 
z"/>
<path fill="#D53748" opacity="1.000000" stroke="none" 
	d="
M65.994377,27.579233 
	C65.678947,28.105837 65.422676,28.293402 65.099625,28.762440 
	C60.923817,28.656569 56.868542,28.342657 52.404896,28.016100 
	C52.013519,26.652695 52.030514,25.301935 52.102077,23.554489 
	C55.433331,23.103716 58.711731,23.097923 61.986183,22.981251 
	C64.951591,22.875587 66.204887,24.292042 65.994377,27.579233 
z"/>
<path fill="#DF374B" opacity="1.000000" stroke="none" 
	d="
M77.922523,116.802902 
	C76.982361,118.356255 76.267975,119.667854 75.232368,120.635788 
	C74.811081,121.029549 73.503822,120.956192 72.945473,120.580917 
	C72.435036,120.237854 72.083595,118.607445 72.185944,118.554359 
	C77.006660,116.054054 75.085785,111.421761 75.125595,106.611252 
	C78.821243,109.945183 79.690750,112.852074 77.922523,116.802902 
z"/>
</svg>