<svg version="1.1" id="Layer_1" xmlns="http://www.w3.org/2000/svg" xmlns:xlink="http://www.w3.org/1999/xlink" x="0px" y="0px"
	 width="100%" viewBox="0 0 180 182" enable-background="new 0 0 180 182" xml:space="preserve">
<path fill="#FDFEFD" opacity="1.000000" stroke="none" 
	d="
M43.000000,1.000000 
	C88.925644,1.000000 134.851288,1.000000 181.000000,1.000000 
	C181.000000,45.020641 181.000000,89.041664 180.656311,133.583191 
	C179.667160,134.815659 179.018524,135.524780 178.376785,136.240097 
	C176.672073,138.140259 175.210190,141.319824 173.220200,141.693695 
	C168.229660,142.631302 162.966324,142.762024 157.874115,142.384323 
	C145.856827,141.492950 145.691238,141.302765 146.080719,153.440521 
	C146.259399,159.009232 147.881821,164.565628 147.733917,170.097778 
	C147.648315,173.299988 151.860291,177.729355 146.039886,179.634003 
	C145.399109,176.516022 144.720276,173.764206 144.011505,170.728088 
	C143.731049,169.953827 143.480530,169.463852 143.186050,168.509018 
	C143.150894,158.707031 143.159683,149.369904 143.348663,139.916870 
	C143.740295,139.437134 143.951752,139.073303 144.168396,138.563690 
	C144.173584,138.417908 144.028275,138.164886 144.475189,138.260300 
	C147.951080,138.414612 150.980057,138.473526 154.177094,138.684616 
	C154.894012,138.735001 155.442902,138.633179 156.418793,138.458664 
	C158.856293,138.447693 160.866776,138.509430 162.992340,138.842865 
	C164.089478,138.802032 165.071533,138.489502 166.369690,138.077026 
	C167.720398,137.608582 168.754974,137.240067 170.061218,136.838348 
	C170.548340,136.525269 170.763779,136.245392 170.988007,135.984344 
	C170.996796,136.003189 170.963562,135.977310 171.208298,135.925827 
	C171.769699,135.702362 171.956680,135.438492 172.213074,134.873657 
	C172.932495,134.102402 173.452820,133.540222 174.333160,132.918594 
	C175.113495,131.555786 175.533813,130.252411 175.934982,128.706238 
	C175.915817,128.463425 175.780563,127.995438 175.899429,127.757889 
	C176.079605,127.354202 176.140915,127.188065 176.357834,126.933945 
	C176.573257,126.743347 176.706467,126.611061 176.679214,126.543678 
	C176.596176,126.338402 176.451233,126.158142 176.297363,125.503143 
	C176.302292,106.692360 176.340256,88.346573 176.597137,69.676331 
	C177.132721,66.584816 177.611572,63.821861 177.681732,61.048573 
	C177.707748,60.019890 176.774902,58.966949 176.193726,57.618889 
	C176.061630,56.892063 176.015121,56.471416 175.999939,55.709625 
	C176.014145,54.912792 175.997040,54.457096 176.098526,53.691254 
	C176.251465,52.606308 176.583420,51.314575 176.274200,51.136547 
	C173.132797,49.328007 170.040329,46.802727 166.636368,46.221149 
	C160.627380,45.194508 154.395187,45.538998 148.294113,44.931278 
	C147.087509,44.811085 145.110031,43.010380 145.082809,41.943954 
	C144.842636,32.535412 144.656036,23.103077 145.102921,13.708663 
	C145.335037,8.828979 143.647369,6.883185 138.769806,6.967681 
	C138.523758,6.932716 138.067429,6.736430 137.736481,6.479484 
	C130.644073,5.838125 123.881836,5.124944 117.121368,5.141397 
	C105.035309,5.170810 92.951622,5.738944 80.864517,5.896210 
	C69.974335,6.037903 59.080650,5.893778 48.189186,5.971277 
	C46.437199,5.983744 44.688763,6.495529 42.723709,6.867861 
	C42.508732,6.959227 42.046982,7.030245 41.746990,6.985233 
	C40.321205,7.295676 39.195415,7.651131 37.720169,8.058889 
	C36.246109,10.073411 35.121510,12.035630 33.638672,13.931863 
	C33.708981,10.248156 34.137527,6.630434 34.611179,2.631938 
	C38.785297,3.926910 42.326473,6.885587 43.000000,1.000000 
z"/>
<path fill="#FEFCFC" opacity="1.000000" stroke="none" 
	d="
M139.000000,183.000000 
	C93.074081,183.000000 47.148167,183.000000 1.000000,183.000000 
	C1.000000,138.646027 1.000000,94.291672 1.393646,49.461201 
	C4.130520,48.094387 6.414510,46.922974 8.837785,46.411602 
	C10.455507,46.070229 12.271509,46.668465 13.712044,47.041447 
	C11.371950,48.852055 9.318588,50.467419 6.942233,52.241211 
	C6.045730,53.944027 5.472219,55.488419 4.624737,57.339737 
	C4.230850,58.293007 4.006660,58.939255 4.006120,59.585690 
	C3.988269,80.985489 3.979715,102.385323 4.027542,123.785027 
	C4.029963,124.868843 4.545753,125.951515 4.904800,127.065750 
	C4.987084,127.096786 5.133246,126.998955 5.091937,127.243744 
	C5.050628,127.488541 5.259849,127.938828 5.208023,128.281631 
	C5.200772,129.082657 5.245347,129.540894 5.292847,130.329453 
	C9.497025,136.921860 15.413066,139.066757 22.785631,138.417145 
	C26.871977,138.057114 31.021959,138.419296 35.358849,138.648804 
	C36.138702,138.779373 36.702965,138.717087 37.191238,138.800781 
	C37.115253,138.946762 37.299862,138.674240 37.267361,138.940399 
	C37.450783,139.476501 37.666706,139.746445 37.929474,140.481873 
	C38.019550,151.237503 38.062782,161.527618 38.089149,172.060913 
	C38.146091,172.650452 38.346519,172.891525 38.815468,173.241913 
	C39.204468,173.686554 39.451576,173.916550 39.798817,174.423157 
	C40.500938,175.169159 41.102932,175.638550 41.918602,176.365845 
	C42.767921,176.828674 43.403557,177.033600 44.358109,177.499573 
	C45.329838,177.852264 45.982616,178.023788 46.635494,178.024170 
	C75.854256,178.041168 105.073044,178.053223 134.291748,178.012543 
	C135.551010,178.010788 136.809601,177.506393 138.274246,177.138412 
	C138.479996,177.040680 138.930023,176.970001 139.172897,176.938965 
	C139.746063,176.774033 139.947998,176.532715 140.215622,175.957855 
	C140.961212,175.164658 141.512726,174.597626 142.302963,174.042603 
	C142.541687,174.054626 143.019363,174.073547 143.151489,174.370819 
	C142.640457,176.144043 142.066650,177.655548 141.334076,179.085709 
	C140.642944,180.434982 139.784714,181.698669 139.000000,183.000000 
z"/>
<path fill="#FEFEFE" opacity="1.000000" stroke="none" 
	d="
M146.001831,180.000168 
	C151.860291,177.729355 147.648315,173.299988 147.733917,170.097778 
	C147.881821,164.565628 146.259399,159.009232 146.080719,153.440521 
	C145.691238,141.302765 145.856827,141.492950 157.874115,142.384323 
	C162.966324,142.762024 168.229660,142.631302 173.220200,141.693695 
	C175.210190,141.319824 176.672073,138.140259 178.376785,136.240097 
	C179.018524,135.524780 179.667160,134.815659 180.656311,134.051849 
	C181.000000,150.248810 181.000000,166.497604 181.000000,183.000000 
	C169.313660,183.000000 157.625488,183.000000 145.470444,182.661926 
	C145.336319,181.549286 145.669067,180.774719 146.001831,180.000168 
z"/>
<path fill="#FEFEFE" opacity="1.000000" stroke="none" 
	d="
M13.998775,46.846199 
	C12.271509,46.668465 10.455507,46.070229 8.837785,46.411602 
	C6.414510,46.922974 4.130520,48.094387 1.393646,48.992542 
	C1.000000,33.078178 1.000000,17.156353 1.000000,1.000000 
	C14.686668,1.000000 28.374676,1.000000 42.531342,1.000000 
	C42.326473,6.885587 38.785297,3.926910 34.611179,2.631938 
	C34.137527,6.630434 33.708981,10.248156 33.640217,13.932993 
	C34.000000,14.000111 34.002102,14.003447 34.001339,14.336170 
	C34.000332,15.112620 34.000092,15.556349 33.594551,16.008776 
	C32.133411,17.040367 30.264969,17.980103 30.150434,19.099323 
	C29.244261,27.954428 28.672215,36.843723 27.539923,45.782982 
	C23.064968,46.184074 19.047550,46.524689 14.771778,46.888420 
	C14.341873,46.889759 14.170324,46.867977 13.998775,46.846199 
z"/>
<path fill="#F6FFFD" opacity="1.000000" stroke="none" 
	d="
M146.039886,179.634003 
	C145.669067,180.774719 145.336319,181.549286 145.001785,182.661926 
	C143.285645,183.000000 141.571289,183.000000 139.428467,183.000000 
	C139.784714,181.698669 140.642944,180.434982 141.334076,179.085709 
	C142.066650,177.655548 142.640457,176.144043 143.164520,174.019592 
	C143.030365,172.905396 143.015274,172.439667 143.024384,171.745163 
	C143.048599,171.516373 143.182755,171.076202 143.397614,171.062714 
	C143.612457,171.049225 144.041443,171.012405 144.041443,171.012405 
	C144.720276,173.764206 145.399109,176.516022 146.039886,179.634003 
z"/>
<path fill="#D64255" opacity="1.000000" stroke="none" 
	d="
M175.780563,127.995438 
	C175.780563,127.995438 175.915817,128.463425 175.683380,128.914474 
	C174.958344,130.569702 174.465744,131.773880 173.973145,132.978043 
	C173.452820,133.540222 172.932495,134.102402 171.971039,134.859253 
	C171.529907,135.053925 171.046524,135.092850 170.837006,134.870117 
	C163.893646,138.193405 156.594208,136.650513 149.503006,137.051926 
	C147.662994,137.156067 145.852386,137.779800 144.028275,138.164886 
	C144.028275,138.164886 144.173584,138.417908 143.981949,138.400467 
	C143.790314,138.383026 143.320465,138.227264 143.009430,138.166382 
	C142.489166,138.076050 142.279938,138.046570 141.697891,137.941406 
	C139.273178,135.654099 138.933807,133.636398 142.236832,132.004181 
	C142.484756,132.005310 142.979446,131.974411 143.080933,132.106781 
	C143.182434,132.239151 143.104263,132.563461 143.215240,132.905457 
	C147.549362,133.176453 151.772476,133.105423 156.413330,132.931320 
	C163.065536,133.626480 168.708832,133.227097 171.149658,126.158768 
	C172.570679,126.627998 173.761154,126.811981 175.041031,127.199112 
	C175.292969,127.659348 175.509674,127.857071 175.780563,127.995438 
z"/>
<path fill="#FCD2D8" opacity="1.000000" stroke="none" 
	d="
M139.015869,7.002645 
	C143.647369,6.883185 145.335037,8.828979 145.102921,13.708663 
	C144.656036,23.103077 144.842636,32.535412 145.082809,41.943954 
	C145.110031,43.010380 147.087509,44.811085 148.294113,44.931278 
	C154.395187,45.538998 160.627380,45.194508 166.636368,46.221149 
	C170.040329,46.802727 173.132797,49.328007 176.274200,51.136547 
	C176.583420,51.314575 176.251465,52.606308 175.830780,53.698242 
	C175.266037,54.029484 175.087631,54.043598 174.921753,54.026783 
	C174.934280,53.995853 175.000702,53.992001 174.953156,53.706352 
	C174.609268,52.947849 174.312912,52.474998 173.791382,51.977139 
	C173.566177,51.952129 173.119507,51.875729 173.043274,51.662525 
	C172.800186,51.173622 172.558701,51.004513 172.094711,50.668724 
	C171.288803,49.920368 170.630753,49.445278 169.665375,48.675507 
	C161.330643,48.201317 153.303268,48.021812 145.052155,47.509979 
	C144.205048,45.629845 143.070496,44.091328 143.042206,42.532707 
	C142.873169,33.227875 143.203812,23.907469 142.788483,14.618143 
	C142.684158,12.284674 140.461487,10.045918 139.160522,7.574083 
	C139.108719,7.384533 139.015869,7.002645 139.015869,7.002645 
z"/>
<path fill="#FCD2D8" opacity="1.000000" stroke="none" 
	d="
M42.938686,6.776495 
	C44.688763,6.495529 46.437199,5.983744 48.189186,5.971277 
	C59.080650,5.893778 69.974335,6.037903 80.864517,5.896210 
	C92.951622,5.738944 105.035309,5.170810 117.121368,5.141397 
	C123.881836,5.124944 130.644073,5.838125 137.265717,6.535459 
	C105.730164,6.824419 74.334427,6.800457 42.938686,6.776495 
z"/>
<path fill="#BF4151" opacity="1.000000" stroke="none" 
	d="
M42.723709,6.867861 
	C74.334427,6.800457 105.730164,6.824419 137.596664,6.792405 
	C138.067429,6.736430 138.523758,6.932716 138.769806,6.967681 
	C139.015869,7.002645 139.108719,7.384533 139.090729,7.652036 
	C139.072739,7.919539 138.931519,8.072818 138.469406,8.049922 
	C107.898743,8.020122 77.790054,7.977353 47.681961,8.091493 
	C45.787140,8.098676 43.896965,9.330789 41.762543,10.148405 
	C41.021740,10.871440 40.523022,11.439096 39.789764,12.003971 
	C39.555222,12.001190 39.086109,12.002963 39.026791,11.748001 
	C38.924286,11.323955 38.881096,11.154868 38.959312,10.764420 
	C39.114319,10.378131 39.147915,10.213204 39.439377,9.896147 
	C40.480495,8.839425 41.263737,7.934835 42.046982,7.030245 
	C42.046982,7.030245 42.508732,6.959227 42.723709,6.867861 
z"/>
<path fill="#BD3B49" opacity="1.000000" stroke="none" 
	d="
M175.899429,127.757889 
	C175.509674,127.857071 175.292969,127.659348 175.058807,126.731140 
	C175.039886,102.662155 175.092621,79.264290 175.350372,55.916046 
	C175.555405,55.965668 175.968628,56.050770 175.968628,56.050770 
	C176.015121,56.471416 176.061630,56.892063 176.108063,58.078621 
	C176.198074,62.563290 176.288147,66.282043 176.378220,70.000793 
	C176.340256,88.346573 176.302292,106.692360 176.183960,125.756760 
	C176.136490,126.657562 176.169357,126.839752 176.202240,127.021935 
	C176.140915,127.188065 176.079605,127.354202 175.899429,127.757889 
z"/>
<path fill="#C25965" opacity="1.000000" stroke="none" 
	d="
M142.070709,138.017105 
	C142.279938,138.046570 142.489166,138.076050 142.918945,138.463074 
	C143.149170,139.224686 143.158829,139.628738 143.168488,140.032791 
	C143.159683,149.369904 143.150894,158.707031 143.095337,168.853912 
	C143.093307,170.134521 143.138031,170.605362 143.182755,171.076202 
	C143.182755,171.076202 143.048599,171.516373 142.807312,171.791077 
	C142.566025,172.065781 142.145828,172.207703 142.088776,171.836304 
	C141.994064,170.965286 141.956421,170.465683 141.938995,169.595947 
	C141.958450,168.483170 141.957703,167.740540 141.973053,166.529633 
	C142.016342,156.713272 142.043533,147.365189 142.070709,138.017105 
z"/>
<path fill="#BD4653" opacity="1.000000" stroke="none" 
	d="
M144.475189,138.260300 
	C145.852386,137.779800 147.662994,137.156067 149.503006,137.051926 
	C156.594208,136.650513 163.893646,138.193405 170.801056,135.089798 
	C170.974609,135.532196 170.963562,135.977310 170.963562,135.977310 
	C170.963562,135.977310 170.996796,136.003189 170.725342,136.032928 
	C170.232452,136.332306 170.011002,136.601929 169.789536,136.871552 
	C168.754974,137.240067 167.720398,137.608582 165.965759,138.025482 
	C164.456223,138.239639 163.666748,138.405396 162.877258,138.571167 
	C160.866776,138.509430 158.856293,138.447693 156.096451,138.329773 
	C154.901077,138.359863 154.455048,138.446152 154.009033,138.532425 
	C150.980057,138.473526 147.951080,138.414612 144.475189,138.260300 
z"/>
<path fill="#FBD1D4" opacity="1.000000" stroke="none" 
	d="
M176.597137,69.676331 
	C176.288147,66.282043 176.198074,62.563290 176.193665,58.384804 
	C176.774902,58.966949 177.707748,60.019890 177.681732,61.048573 
	C177.611572,63.821861 177.132721,66.584816 176.597137,69.676331 
z"/>
<path fill="#FEFCFC" opacity="1.000000" stroke="none" 
	d="
M39.181507,10.048279 
	C39.147915,10.213204 39.114319,10.378131 38.687435,10.911180 
	C37.889450,12.179312 37.484749,13.079318 36.695312,13.985468 
	C35.541088,13.995556 34.771595,13.999501 34.002102,14.003447 
	C34.002102,14.003447 34.000000,14.000111 33.998451,13.998980 
	C35.121510,12.035630 36.246109,10.073411 37.742432,8.370056 
	C38.469936,9.102040 38.825722,9.575159 39.181507,10.048279 
z"/>
<path fill="#FCD2D8" opacity="1.000000" stroke="none" 
	d="
M39.439377,9.896147 
	C38.825722,9.575159 38.469936,9.102040 38.091888,8.317754 
	C39.195415,7.651131 40.321205,7.295676 41.746990,6.985233 
	C41.263737,7.934835 40.480495,8.839425 39.439377,9.896147 
z"/>
<path fill="#FBD1D4" opacity="1.000000" stroke="none" 
	d="
M174.333160,132.918594 
	C174.465744,131.773880 174.958344,130.569702 175.702545,129.157288 
	C175.533813,130.252411 175.113495,131.555786 174.333160,132.918594 
z"/>
<path fill="#FBD1D4" opacity="1.000000" stroke="none" 
	d="
M162.992340,138.842850 
	C163.666748,138.405396 164.456223,138.239639 165.649643,138.125427 
	C165.071533,138.489502 164.089478,138.802032 162.992340,138.842850 
z"/>
<path fill="#FBD1D4" opacity="1.000000" stroke="none" 
	d="
M143.397614,171.062714 
	C143.138031,170.605362 143.093307,170.134521 143.139297,169.318787 
	C143.480530,169.463852 143.731049,169.953827 144.011505,170.728088 
	C144.041443,171.012405 143.612457,171.049225 143.397614,171.062714 
z"/>
<path fill="#FBD1D4" opacity="1.000000" stroke="none" 
	d="
M154.177094,138.684616 
	C154.455048,138.446152 154.901077,138.359863 155.669434,138.402481 
	C155.442902,138.633179 154.894012,138.735001 154.177094,138.684616 
z"/>
<path fill="#FBD1D4" opacity="1.000000" stroke="none" 
	d="
M143.348663,139.916870 
	C143.158829,139.628738 143.149170,139.224686 143.229980,138.523956 
	C143.320465,138.227264 143.790314,138.383026 143.976761,138.546265 
	C143.951752,139.073303 143.740295,139.437134 143.348663,139.916870 
z"/>
<path fill="#FBD1D4" opacity="1.000000" stroke="none" 
	d="
M175.999939,55.709625 
	C175.968628,56.050770 175.555405,55.965668 175.330856,55.929146 
	C175.106308,55.892624 175.137253,55.912655 175.138367,55.600250 
	C175.062729,54.877800 174.985962,54.467754 174.909210,54.057713 
	C175.087631,54.043598 175.266037,54.029484 175.712189,54.008389 
	C175.997040,54.457096 176.014145,54.912792 175.999939,55.709625 
z"/>
<path fill="#FBD1D4" opacity="1.000000" stroke="none" 
	d="
M170.061218,136.838348 
	C170.011002,136.601929 170.232452,136.332306 170.716568,136.014099 
	C170.763779,136.245392 170.548340,136.525269 170.061218,136.838348 
z"/>
<path fill="#FBD1D4" opacity="1.000000" stroke="none" 
	d="
M171.208298,135.925827 
	C170.963562,135.977310 170.974609,135.532196 171.010559,135.312531 
	C171.046524,135.092850 171.529907,135.053925 171.771942,135.068329 
	C171.956680,135.438492 171.769699,135.702362 171.208298,135.925827 
z"/>
<path fill="#FBD1D4" opacity="1.000000" stroke="none" 
	d="
M176.357834,126.933945 
	C176.169357,126.839752 176.136490,126.657562 176.217010,126.221756 
	C176.451233,126.158142 176.596176,126.338402 176.679214,126.543678 
	C176.706467,126.611061 176.573257,126.743347 176.357834,126.933945 
z"/>
<path fill="#CA3747" opacity="1.000000" stroke="none" 
	d="
M141.697906,137.941406 
	C142.043533,147.365189 142.016342,156.713272 141.687347,166.228729 
	C141.385544,157.823471 141.385544,149.250824 141.385544,139.662552 
	C139.712082,140.885086 139.264893,141.057617 139.262756,141.235428 
	C139.158051,150.005188 139.014145,158.776566 139.147949,167.543610 
	C139.160477,168.365021 140.952805,169.159241 141.918777,169.966080 
	C141.956421,170.465683 141.994064,170.965286 142.066162,172.139648 
	C142.088470,173.219818 142.076355,173.625198 142.064240,174.030594 
	C141.512726,174.597626 140.961212,175.164658 139.972565,175.913757 
	C139.535461,176.095840 139.042419,176.125229 139.023438,175.840729 
	C138.985184,175.367157 138.965897,175.178055 138.916290,174.663300 
	C138.237961,173.873840 137.589966,173.410004 136.967621,172.636261 
	C137.005341,171.911865 137.017380,171.497406 137.107849,170.730499 
	C137.285385,169.907211 137.384506,169.436325 137.599792,168.871826 
	C137.850174,168.460007 137.768631,168.210281 137.393890,167.565430 
	C137.364868,145.041931 137.413284,122.982033 137.621246,100.774811 
	C137.684525,100.109009 137.588242,99.590546 137.394211,98.768219 
	C137.215164,98.267715 137.133865,98.071060 137.117538,97.514343 
	C137.797958,95.571945 138.413422,93.989616 139.339325,92.566803 
	C140.437088,93.491875 141.224411,94.257416 141.980835,95.400085 
	C142.245193,97.187614 142.540482,98.598015 142.887238,100.406204 
	C142.894043,101.870285 142.849380,102.936562 142.548401,104.326118 
	C142.191040,113.767281 142.089966,122.885162 141.988892,132.003052 
	C138.933807,133.636398 139.273178,135.654099 141.697906,137.941406 
z"/>
<path fill="#CB3A4B" opacity="1.000000" stroke="none" 
	d="
M4.898707,57.032806 
	C5.472219,55.488419 6.045730,53.944027 7.302649,52.278816 
	C9.434825,52.949070 10.883592,53.740143 12.252814,54.808628 
	C11.594930,56.083466 11.016591,57.080894 10.055882,58.279449 
	C9.448972,59.424675 9.030168,60.368412 9.028459,61.312908 
	C8.991091,81.974289 8.983409,102.635796 9.041622,123.297089 
	C9.045101,124.532013 9.646888,125.765251 10.040597,126.894386 
	C10.110928,126.789497 10.350941,126.868156 10.177374,127.127457 
	C9.946699,127.586769 9.889591,127.786797 9.557489,128.138947 
	C7.951640,128.860428 6.620782,129.429779 5.289923,129.999115 
	C5.245347,129.540894 5.200772,129.082657 5.338097,128.181488 
	C5.644845,127.384354 5.515929,127.137817 5.133246,126.998955 
	C5.133246,126.998955 4.987084,127.096786 4.983252,126.601517 
	C4.952515,103.081764 4.925611,80.057289 4.898707,57.032806 
z"/>
<path fill="#D14051" opacity="1.000000" stroke="none" 
	d="
M5.292848,130.329453 
	C6.620782,129.429779 7.951640,128.860428 9.729893,128.420135 
	C11.384443,129.428024 12.591600,130.306885 13.833145,131.103409 
	C13.867535,131.021088 13.833905,131.196243 13.944063,131.431885 
	C14.372111,131.766159 14.690002,131.864777 15.188538,132.057648 
	C15.369183,132.151917 15.774803,132.191254 16.122639,132.444214 
	C19.930260,132.781494 23.396832,133.038452 26.847979,132.902863 
	C30.488459,132.759842 34.114220,132.242188 37.843285,131.476562 
	C38.036240,129.378067 38.132324,127.691216 38.425694,126.002884 
	C38.622978,126.001404 39.017586,126.001808 39.065933,126.338409 
	C39.776924,129.927094 40.593552,133.160690 40.987656,136.445007 
	C41.079521,137.210571 39.735592,138.148422 38.845901,138.989883 
	C38.639519,138.972778 38.226212,138.946014 38.008148,138.831970 
	C37.790089,138.717926 37.299862,138.674240 37.299862,138.674240 
	C37.299862,138.674240 37.115253,138.946762 37.093822,138.514206 
	C36.429348,138.206421 35.786301,138.331177 35.143257,138.455948 
	C31.021959,138.419296 26.871977,138.057114 22.785631,138.417145 
	C15.413066,139.066757 9.497025,136.921860 5.292848,130.329453 
z"/>
<path fill="#CE394A" opacity="1.000000" stroke="none" 
	d="
M39.698685,174.146545 
	C39.451576,173.916550 39.204468,173.686554 38.908157,173.021301 
	C38.858952,172.586029 38.936237,172.113922 38.972626,171.716690 
	C39.214592,170.037109 39.612812,168.752060 39.594875,167.472839 
	C39.466381,158.309113 39.253239,149.146561 39.312725,139.997589 
	C39.558464,140.011551 40.051517,140.036621 40.083664,140.344772 
	C40.727310,141.080383 41.338810,141.507843 41.966011,142.407761 
	C41.987640,148.693848 41.882736,154.510498 42.040493,160.320007 
	C42.137283,163.884354 42.636360,167.437775 42.851929,171.294739 
	C42.508240,172.386963 42.267414,173.180542 42.014771,173.986084 
	C42.002949,173.998047 41.981583,174.024048 41.600388,174.026337 
	C40.712353,174.067932 40.205517,174.107239 39.698685,174.146545 
z"/>
<path fill="#FBD1D4" opacity="1.000000" stroke="none" 
	d="
M138.068497,177.236145 
	C136.809601,177.506393 135.551010,178.010788 134.291748,178.012543 
	C105.073044,178.053223 75.854256,178.041168 46.635494,178.024170 
	C45.982616,178.023788 45.329838,177.852264 44.322311,177.386353 
	C43.967609,177.012115 43.967442,176.774658 44.428658,176.878052 
	C75.585091,176.951614 106.280304,176.921799 137.248749,176.978043 
	C137.704163,177.121445 137.886322,177.178787 138.068497,177.236145 
z"/>
<path fill="#FFB9C3" opacity="1.000000" stroke="none" 
	d="
M4.624737,57.339737 
	C4.925611,80.057289 4.952515,103.081764 4.900968,126.570480 
	C4.545753,125.951515 4.029963,124.868843 4.027542,123.785027 
	C3.979715,102.385323 3.988269,80.985489 4.006120,59.585690 
	C4.006660,58.939255 4.230850,58.293007 4.624737,57.339737 
z"/>
<path fill="#D14656" opacity="1.000000" stroke="none" 
	d="
M12.332359,54.531219 
	C10.883592,53.740143 9.434825,52.949070 7.625641,52.120388 
	C9.318588,50.467419 11.371950,48.852055 13.712044,47.041447 
	C14.170324,46.867977 14.341873,46.889759 14.993242,47.236675 
	C18.643250,47.696041 21.813435,47.830269 24.987450,48.339211 
	C24.994719,49.462971 24.998159,50.212017 24.561813,50.971367 
	C21.416563,51.330761 18.711103,51.679844 15.930839,52.213440 
	C15.856033,52.397949 15.746491,52.780777 15.552848,52.822823 
	C15.359204,52.864864 15.013131,53.057980 14.746937,53.071545 
	C14.249184,53.338955 14.017624,53.592800 13.539277,53.952766 
	C12.972445,54.216324 12.652402,54.373772 12.332359,54.531219 
z"/>
<path fill="#D04E5D" opacity="1.000000" stroke="none" 
	d="
M39.066986,139.983643 
	C39.253239,149.146561 39.466381,158.309113 39.594875,167.472839 
	C39.612812,168.752060 39.214592,170.037109 38.767258,171.636658 
	C38.525501,171.953842 38.106014,171.817749 38.106014,171.817749 
	C38.062782,161.527618 38.019550,151.237503 38.033203,140.220016 
	C38.135464,139.310440 38.180840,139.128220 38.226212,138.946014 
	C38.226212,138.946014 38.639519,138.972778 38.840683,139.234161 
	C39.041851,139.495529 39.066982,139.983643 39.066986,139.983643 
z"/>
<path fill="#CE394A" opacity="1.000000" stroke="none" 
	d="
M44.003403,177.125336 
	C43.403557,177.033600 42.767921,176.828674 42.155457,176.265457 
	C42.112946,175.279465 42.047264,174.651764 41.981583,174.024048 
	C41.981583,174.024048 42.002949,173.998047 42.381172,173.981293 
	C44.181362,173.647079 45.603325,173.329636 47.017441,173.348923 
	C46.999557,174.134644 46.989521,174.583633 46.709747,175.146271 
	C45.615818,175.764832 44.791630,176.269745 43.967438,176.774658 
	C43.967442,176.774658 43.967609,177.012115 44.003403,177.125336 
z"/>
<path fill="#D04E5D" opacity="1.000000" stroke="none" 
	d="
M41.600388,174.026337 
	C42.047264,174.651764 42.112946,175.279465 41.941780,176.007568 
	C41.102932,175.638550 40.500938,175.169159 39.798813,174.423157 
	C40.205517,174.107239 40.712353,174.067932 41.600388,174.026337 
z"/>
<path fill="#FBD1D4" opacity="1.000000" stroke="none" 
	d="
M35.358849,138.648804 
	C35.786301,138.331177 36.429348,138.206421 37.169807,138.368225 
	C36.702965,138.717087 36.138702,138.779373 35.358849,138.648804 
z"/>
<path fill="#C25965" opacity="1.000000" stroke="none" 
	d="
M138.274246,177.138412 
	C137.886322,177.178787 137.704163,177.121445 137.261459,176.754913 
	C137.000931,176.445724 137.019363,175.998962 137.271530,175.894272 
	C137.998001,175.522705 138.472305,175.255814 138.946609,174.988937 
	C138.965897,175.178055 138.985184,175.367157 138.997406,176.052155 
	C138.990356,176.548065 138.930023,176.970001 138.930023,176.970001 
	C138.930023,176.970001 138.479996,177.040680 138.274246,177.138412 
z"/>
<path fill="#FBD1D4" opacity="1.000000" stroke="none" 
	d="
M142.302963,174.042603 
	C142.076355,173.625198 142.088470,173.219818 142.123215,172.511063 
	C142.145828,172.207703 142.566025,172.065781 142.783112,172.019867 
	C143.015274,172.439667 143.030365,172.905396 143.032410,173.722321 
	C143.019363,174.073547 142.541687,174.054626 142.302963,174.042603 
z"/>
<path fill="#FBD1D4" opacity="1.000000" stroke="none" 
	d="
M38.089149,172.060913 
	C38.106014,171.817749 38.525501,171.953842 38.730869,172.033875 
	C38.936237,172.113922 38.858952,172.586029 38.766258,172.806641 
	C38.346519,172.891525 38.146091,172.650452 38.089149,172.060913 
z"/>
<path fill="#FBD1D4" opacity="1.000000" stroke="none" 
	d="
M139.172897,176.938965 
	C138.930023,176.970001 138.990356,176.548065 139.016388,176.336639 
	C139.042419,176.125229 139.535461,176.095840 139.778503,176.139923 
	C139.947998,176.532715 139.746063,176.774033 139.172897,176.938965 
z"/>
<path fill="#FBD1D4" opacity="1.000000" stroke="none" 
	d="
M38.008148,138.831970 
	C38.180840,139.128220 38.135464,139.310440 37.986359,139.754517 
	C37.666706,139.746445 37.450783,139.476501 37.267361,138.940399 
	C37.299862,138.674240 37.790089,138.717926 38.008148,138.831970 
z"/>
<path fill="#D14051" opacity="1.000000" stroke="none" 
	d="
M5.091937,127.243744 
	C5.515929,127.137817 5.644845,127.384354 5.389922,127.838684 
	C5.259849,127.938828 5.050628,127.488541 5.091937,127.243744 
z"/>
<path fill="#FDFEFD" opacity="1.000000" stroke="none" 
	d="
M27.997461,45.722511 
	C28.672215,36.843723 29.244261,27.954428 30.150434,19.099323 
	C30.264969,17.980103 32.133411,17.040367 33.594616,16.473370 
	C33.665428,26.525152 33.330887,36.121040 32.582394,45.778038 
	C30.778114,45.800270 29.387789,45.761391 27.997461,45.722511 
z"/>
<path fill="#FDFDFD" opacity="1.000000" stroke="none" 
	d="
M32.996346,45.716927 
	C33.330887,36.121040 33.665428,26.525152 33.999908,16.464672 
	C34.000092,15.556349 34.000332,15.112620 34.001339,14.336170 
	C34.771595,13.999501 35.541088,13.995556 36.953262,14.276466 
	C37.664505,16.711397 37.733067,18.861471 37.446404,21.105873 
	C36.728020,22.364960 36.067471,23.525408 36.050514,24.695185 
	C35.949066,31.693678 35.995838,38.694321 35.620056,45.748177 
	C34.496922,45.773720 33.746632,45.745323 32.996346,45.716927 
z"/>
<path fill="#FCD2D8" opacity="1.000000" stroke="none" 
	d="
M37.801628,21.011545 
	C37.733067,18.861471 37.664505,16.711397 37.337997,14.270323 
	C37.484749,13.079318 37.889450,12.179312 38.566032,11.132544 
	C38.881096,11.154868 38.924286,11.323955 38.930176,12.208183 
	C38.918213,23.942871 38.943554,34.962414 38.714802,46.149784 
	C37.582848,46.760235 36.704983,47.202862 35.381741,47.679920 
	C31.618780,47.797733 28.301199,47.881115 24.983620,47.964497 
	C21.813435,47.830269 18.643250,47.696041 15.251599,47.213562 
	C19.047550,46.524689 23.064968,46.184074 27.539923,45.782986 
	C29.387789,45.761391 30.778114,45.800270 32.582390,45.778038 
	C33.746632,45.745323 34.496922,45.773720 36.014866,45.739731 
	C37.167034,44.699574 37.877132,43.724110 37.884071,42.743671 
	C37.935314,35.500187 37.846439,28.255709 37.801628,21.011545 
z"/>
<path fill="#FEFCFC" opacity="1.000000" stroke="none" 
	d="
M15.013131,53.057980 
	C15.013131,53.057980 15.359204,52.864864 15.962271,52.904167 
	C18.389952,52.735062 20.214569,52.526661 22.503269,52.279102 
	C37.297325,52.268127 51.627296,52.296303 66.227989,52.529083 
	C68.014549,52.586308 69.530396,52.438923 71.359619,52.256607 
	C72.091805,52.249043 72.510605,52.276409 73.037460,52.452312 
	C73.453087,52.512466 73.760666,52.424084 74.503746,52.300629 
	C77.270424,52.289211 79.601593,52.312866 82.046341,52.480305 
	C82.463356,52.518070 82.766800,52.412056 83.532211,52.263466 
	C102.307220,52.251091 120.620270,52.281288 139.043503,52.456478 
	C139.457687,52.508598 139.761673,52.415730 140.527130,52.294762 
	C145.979462,52.291737 150.970322,52.316811 156.296509,52.568283 
	C159.204788,52.744354 161.777710,52.694023 164.677063,52.694939 
	C165.966187,53.249451 166.928879,53.752712 167.929153,54.544327 
	C168.381760,55.180752 168.796783,55.528824 169.462677,56.166611 
	C170.055389,58.889809 170.678696,61.321430 170.694839,63.757080 
	C170.832199,84.462143 170.859100,105.167946 170.919113,125.873528 
	C168.708832,133.227097 163.065536,133.626480 155.957794,132.844299 
	C151.091110,132.761398 147.097687,132.662430 143.104263,132.563461 
	C143.104263,132.563461 143.182434,132.239151 143.135834,131.643707 
	C142.994400,122.033112 142.899567,113.017982 142.804718,104.002846 
	C142.849380,102.936562 142.894043,101.870285 142.993988,100.034233 
	C142.703430,97.850624 142.357590,96.436790 142.011734,95.022949 
	C141.224411,94.257416 140.437088,93.491875 138.988937,92.361343 
	C124.534592,92.041237 110.741081,92.086128 96.510620,92.062347 
	C93.710838,92.038651 91.348000,92.083618 88.525558,92.036552 
	C81.050751,92.007263 74.035553,92.070015 66.556015,92.062866 
	C60.724987,92.038849 55.358303,92.084724 49.665512,92.043091 
	C48.896908,92.013962 48.454407,92.072327 47.592918,92.062988 
	C40.343826,91.954971 38.136116,93.423645 38.070065,98.780846 
	C37.958210,107.853325 38.159031,116.929657 38.228409,126.004364 
	C38.132324,127.691216 38.036240,129.378067 37.393745,131.491150 
	C29.823153,132.008682 22.798979,132.099960 15.774803,132.191254 
	C15.774803,132.191254 15.369183,132.151917 15.066649,131.832184 
	C14.454046,131.407043 14.143976,131.301651 13.833906,131.196243 
	C13.833905,131.196243 13.867535,131.021088 13.869133,130.746613 
	C12.697468,129.270813 11.524203,128.069489 10.350941,126.868156 
	C10.350941,126.868156 10.110928,126.789497 10.196310,126.447968 
	C10.333879,103.430389 10.386065,80.754356 10.438251,58.078320 
	C11.016591,57.080894 11.594930,56.083466 12.252814,54.808628 
	C12.652402,54.373772 12.972445,54.216324 13.800767,53.931091 
	C14.543740,53.554863 14.778436,53.306419 15.013131,53.057980 
M33.287899,69.338463 
	C31.451904,68.978226 29.603348,68.362617 27.789465,68.451859 
	C27.377722,68.472115 26.426342,71.286240 26.904493,72.188278 
	C27.517893,73.345467 30.118940,74.804497 30.476871,74.500534 
	C31.827965,73.353149 32.617290,71.544250 33.287899,69.338463 
z"/>
<path fill="#CC3845" opacity="1.000000" stroke="none" 
	d="
M171.149658,126.158768 
	C170.859100,105.167946 170.832199,84.462143 170.694839,63.757080 
	C170.678696,61.321430 170.055389,58.889809 169.492645,55.943459 
	C169.271759,55.430603 169.262222,54.980236 169.433044,54.856525 
	C169.803116,54.523857 169.936996,54.279125 170.267212,54.109276 
	C171.034378,54.475239 171.539856,54.730553 172.343933,55.121643 
	C173.474121,55.475834 174.305679,55.694244 175.137253,55.912655 
	C175.137253,55.912655 175.106308,55.892624 175.125824,55.879524 
	C175.092621,79.264290 175.039886,102.662155 174.969391,126.528000 
	C173.761154,126.811981 172.570679,126.627998 171.149658,126.158768 
z"/>
<path fill="#C45D6A" opacity="1.000000" stroke="none" 
	d="
M142.548416,104.326118 
	C142.899567,113.017982 142.994400,122.033112 143.034332,131.511322 
	C142.979446,131.974411 142.484756,132.005310 142.236816,132.004181 
	C142.089966,122.885162 142.191040,113.767281 142.548416,104.326118 
z"/>
<path fill="#CA3747" opacity="1.000000" stroke="none" 
	d="
M143.215240,132.905457 
	C147.097687,132.662430 151.091110,132.761398 155.540070,132.947388 
	C151.772476,133.105423 147.549362,133.176453 143.215240,132.905457 
z"/>
<path fill="#D53A47" opacity="1.000000" stroke="none" 
	d="
M172.045319,54.985867 
	C171.539856,54.730553 171.034378,54.475239 169.977142,54.124580 
	C169.234146,54.059681 169.042953,54.090130 168.844345,54.137474 
	C168.836945,54.154366 168.808716,54.180256 168.813889,53.790897 
	C166.819397,52.599209 164.836227,51.155838 162.817276,51.103939 
	C153.363892,50.860935 143.900650,51.006607 134.440933,51.003475 
	C97.961159,50.991402 61.481380,50.975521 25.001602,50.961060 
	C24.998159,50.212017 24.994719,49.462971 24.987450,48.339211 
	C28.301199,47.881115 31.618780,47.797733 35.592094,47.998810 
	C38.170971,48.185879 40.094112,48.088493 42.484116,47.991570 
	C74.642647,47.991535 106.334305,47.991035 138.398682,47.991661 
	C139.517044,47.987293 140.262695,47.981796 141.435394,47.979782 
	C143.000259,47.936283 144.138062,47.889294 145.275879,47.842308 
	C153.303268,48.021812 161.330643,48.201317 169.720367,49.019661 
	C170.802673,50.086327 171.522614,50.514156 172.242569,50.941986 
	C172.558701,51.004513 172.800186,51.173622 172.765045,51.874016 
	C172.390488,53.194427 172.217896,54.090149 172.045319,54.985867 
z"/>
<path fill="#BF4151" opacity="1.000000" stroke="none" 
	d="
M145.052155,47.509979 
	C144.138062,47.889294 143.000259,47.936283 141.432907,47.516739 
	C141.312515,42.123844 142.150330,37.160793 141.811584,32.279385 
	C141.249741,24.182899 139.931259,16.138918 138.931519,8.072819 
	C138.931519,8.072818 139.072739,7.919539 139.142548,7.841586 
	C140.461487,10.045918 142.684158,12.284674 142.788483,14.618143 
	C143.203812,23.907469 142.873169,33.227875 143.042206,42.532707 
	C143.070496,44.091328 144.205048,45.629845 145.052155,47.509979 
z"/>
<path fill="#BD3B49" opacity="1.000000" stroke="none" 
	d="
M172.343933,55.121643 
	C172.217896,54.090149 172.390488,53.194427 172.841293,52.087219 
	C173.119507,51.875729 173.566177,51.952129 173.845627,52.269520 
	C174.416946,53.055275 174.708832,53.523636 175.000702,53.992001 
	C175.000702,53.992001 174.934280,53.995853 174.921753,54.026783 
	C174.985962,54.467754 175.062729,54.877800 175.138367,55.600250 
	C174.305679,55.694244 173.474121,55.475834 172.343933,55.121643 
z"/>
<path fill="#BD3B49" opacity="1.000000" stroke="none" 
	d="
M172.094711,50.668720 
	C171.522614,50.514156 170.802673,50.086327 170.027710,49.314342 
	C170.630753,49.445278 171.288803,49.920368 172.094711,50.668720 
z"/>
<path fill="#FDFEFD" opacity="1.000000" stroke="none" 
	d="
M174.953156,53.706352 
	C174.708832,53.523636 174.416946,53.055275 174.070831,52.294529 
	C174.312912,52.474998 174.609268,52.947849 174.953156,53.706352 
z"/>
<path fill="#D3454F" opacity="1.000000" stroke="none" 
	d="
M138.469391,8.049923 
	C139.931259,16.138918 141.249741,24.182899 141.811584,32.279385 
	C142.150330,37.160793 141.312515,42.123844 141.005859,47.513252 
	C140.262695,47.981796 139.517044,47.987293 138.389374,47.740685 
	C137.998169,47.321323 137.988983,47.154072 138.284119,46.699997 
	C138.719864,36.240467 138.874878,26.067875 138.924759,15.894764 
	C138.927780,15.277229 138.095779,14.655600 137.423157,13.667517 
	C135.992142,12.927365 134.790421,12.231586 133.588455,12.231189 
	C103.927841,12.221395 74.267197,12.285268 44.207676,12.247680 
	C43.541416,12.107499 43.274033,12.055650 42.985874,11.704857 
	C42.644947,10.934951 42.324787,10.463989 42.004627,9.993028 
	C43.896965,9.330789 45.787140,8.098676 47.681961,8.091493 
	C77.790054,7.977353 107.898743,8.020122 138.469391,8.049923 
z"/>
<path fill="#D5384D" opacity="1.000000" stroke="none" 
	d="
M41.762543,10.148405 
	C42.324787,10.463989 42.644947,10.934951 42.720322,11.952808 
	C42.322781,24.330172 42.170017,36.160637 42.017250,47.991104 
	C40.094112,48.088493 38.170971,48.185879 36.037476,47.964378 
	C36.704983,47.202862 37.582848,46.760235 39.023071,45.867920 
	C39.731724,34.281075 39.878010,23.143913 40.024300,12.006754 
	C40.523022,11.439096 41.021740,10.871440 41.762543,10.148405 
z"/>
<path fill="#B63E4B" opacity="1.000000" stroke="none" 
	d="
M39.789761,12.003973 
	C39.878010,23.143913 39.731724,34.281075 39.277164,45.700096 
	C38.943554,34.962414 38.918213,23.942871 38.989494,12.463145 
	C39.086109,12.002963 39.555222,12.001190 39.789761,12.003973 
z"/>
<path fill="#D73246" opacity="1.000000" stroke="none" 
	d="
M141.938995,169.595947 
	C140.952805,169.159241 139.160477,168.365021 139.147949,167.543610 
	C139.014145,158.776566 139.158051,150.005188 139.262756,141.235428 
	C139.264893,141.057617 139.712082,140.885086 141.385544,139.662552 
	C141.385544,149.250824 141.385544,157.823471 141.671265,166.697006 
	C141.957703,167.740540 141.958450,168.483170 141.938995,169.595947 
z"/>
<path fill="#FDF9F9" opacity="1.000000" stroke="none" 
	d="
M137.052567,97.874397 
	C137.133865,98.071060 137.215164,98.267715 137.263275,99.065674 
	C137.307312,100.085358 137.384506,100.503746 137.461700,100.922134 
	C137.413284,122.982033 137.364868,145.041931 137.296204,167.800812 
	C137.345154,168.655014 137.414383,168.810226 137.483627,168.965454 
	C137.384506,169.436325 137.285385,169.907211 136.831055,170.785828 
	C135.976578,171.440170 135.477295,171.686768 134.513977,171.876038 
	C105.702499,171.873322 77.355042,171.927917 48.649220,171.875610 
	C46.826885,171.517471 45.362915,171.266220 43.883305,170.545532 
	C43.798969,147.382126 43.730282,124.688156 43.771484,101.624992 
	C43.804272,100.496346 43.727165,99.736885 43.860485,98.676712 
	C46.203369,98.076439 48.335831,97.776878 50.796467,97.642776 
	C52.097218,97.760345 53.069794,97.712456 54.453400,97.740097 
	C56.247452,97.736320 57.630470,97.656998 59.469681,97.673187 
	C64.612328,97.713623 69.298790,97.658539 74.432098,97.709259 
	C80.579834,97.631325 86.280739,97.447594 92.316322,97.467636 
	C97.489151,97.621399 102.327301,97.571411 107.506805,97.635941 
	C110.169998,97.675400 112.491821,97.600357 115.248581,97.612335 
	C122.436478,97.655411 129.189438,97.611473 136.208466,97.685791 
	C136.667206,97.827499 136.859894,97.850952 137.052567,97.874397 
M116.329796,131.141739 
	C115.905937,131.211624 115.482071,131.281525 114.123993,131.214203 
	C97.433197,131.286438 80.742393,131.358658 63.293510,131.211792 
	C61.684204,132.120987 60.074902,133.030182 58.465599,133.939377 
	C58.669758,134.544083 58.873917,135.148773 59.078075,135.753479 
	C61.413757,136.174515 63.747280,136.946045 66.085464,136.960434 
	C82.806229,137.063446 99.528053,137.037766 116.249191,136.968689 
	C117.830498,136.962158 119.409409,136.375626 121.730034,135.743561 
	C123.317223,130.811081 120.083679,131.137009 116.329796,131.141739 
M63.824394,112.941818 
	C61.951710,113.833748 58.551830,114.621033 58.482250,115.636520 
	C58.237816,119.203949 61.451309,118.822617 63.910839,118.826332 
	C81.551483,118.852982 99.192215,118.867218 116.832809,118.833130 
	C119.240646,118.828484 122.584824,119.345856 122.502258,115.740349 
	C122.418236,112.070610 119.013786,112.967049 116.678154,112.961029 
	C99.370415,112.916405 82.062500,112.941399 63.824394,112.941818 
M102.499458,149.833542 
	C89.206306,149.837814 75.911705,149.754059 62.622097,149.973053 
	C61.182411,149.996780 59.771599,151.772583 58.347389,152.735687 
	C59.681511,153.704086 61.008438,155.503983 62.350838,155.515594 
	C81.125473,155.678055 99.902863,155.654617 118.676979,155.444260 
	C119.943588,155.430054 121.189354,153.557220 122.444817,152.548828 
	C121.114510,151.646698 119.828407,150.055099 118.445938,149.966446 
	C113.481262,149.648087 108.484001,149.837646 102.499458,149.833542 
z"/>
<path fill="#DA354B" opacity="1.000000" stroke="none" 
	d="
M138.916290,174.663300 
	C138.472305,175.255814 137.998001,175.522705 136.800690,175.889648 
	C109.159531,175.988846 82.241318,176.015778 55.323368,175.945343 
	C52.541294,175.938065 49.760742,175.350784 46.979485,175.032623 
	C46.989521,174.583633 46.999557,174.134644 47.350201,173.344849 
	C48.135197,173.001709 48.579582,172.999390 49.490166,172.997177 
	C78.325554,172.992279 106.694756,172.987289 135.377319,172.976013 
	C136.107773,172.961884 136.524872,172.954025 136.941956,172.946167 
	C137.589966,173.410004 138.237961,173.873840 138.916290,174.663300 
z"/>
<path fill="#D25362" opacity="1.000000" stroke="none" 
	d="
M137.117538,97.514343 
	C136.859894,97.850952 136.667206,97.827499 136.209091,97.345367 
	C135.763779,96.270279 135.665009,95.156303 135.391922,95.111786 
	C130.998581,94.395660 126.549011,93.199837 122.185638,93.441078 
	C119.660751,93.580666 117.266617,96.085136 114.813644,97.525307 
	C112.491821,97.600357 110.169998,97.675400 107.412514,97.186874 
	C105.592339,96.074890 104.231895,95.141914 102.818588,95.053406 
	C99.221085,94.828133 95.599953,94.980377 91.668381,94.922997 
	C91.473312,94.265770 91.476395,93.213623 91.742767,93.142113 
	C93.445450,92.684967 95.206032,92.443466 96.947563,92.131027 
	C110.741081,92.086128 124.534592,92.041237 138.678497,92.201813 
	C138.413422,93.989616 137.797958,95.571945 137.117538,97.514343 
z"/>
<path fill="#C45D6A" opacity="1.000000" stroke="none" 
	d="
M141.980835,95.400085 
	C142.357590,96.436790 142.703430,97.850624 142.942535,99.636444 
	C142.540482,98.598015 142.245193,97.187614 141.980835,95.400085 
z"/>
<path fill="#D25362" opacity="1.000000" stroke="none" 
	d="
M136.967621,172.636261 
	C136.524872,172.954025 136.107773,172.961884 135.355316,172.713898 
	C135.005951,172.283142 134.991974,172.108246 134.978012,171.933350 
	C135.477295,171.686768 135.976578,171.440170 136.752640,171.138245 
	C137.017380,171.497406 137.005341,171.911865 136.967621,172.636261 
z"/>
<path fill="#D25362" opacity="1.000000" stroke="none" 
	d="
M137.621246,100.774811 
	C137.384506,100.503746 137.307312,100.085358 137.361053,99.369522 
	C137.588242,99.590546 137.684525,100.109009 137.621246,100.774811 
z"/>
<path fill="#D25362" opacity="1.000000" stroke="none" 
	d="
M137.599792,168.871826 
	C137.414383,168.810226 137.345154,168.655014 137.373627,168.264420 
	C137.768631,168.210281 137.850174,168.460007 137.599792,168.871826 
z"/>
<path fill="#BB3941" opacity="1.000000" stroke="none" 
	d="
M10.055882,58.279449 
	C10.386065,80.754356 10.333879,103.430389 10.125980,126.552856 
	C9.646888,125.765251 9.045101,124.532013 9.041622,123.297089 
	C8.983409,102.635796 8.991091,81.974289 9.028459,61.312908 
	C9.030168,60.368412 9.448972,59.424675 10.055882,58.279449 
z"/>
<path fill="#F3C7CA" opacity="1.000000" stroke="none" 
	d="
M10.177374,127.127457 
	C11.524203,128.069489 12.697468,129.270813 13.834743,130.828934 
	C12.591600,130.306885 11.384443,129.428024 10.004885,128.268005 
	C9.889591,127.786797 9.946699,127.586769 10.177374,127.127457 
z"/>
<path fill="#CC3F4F" opacity="1.000000" stroke="none" 
	d="
M96.510620,92.062347 
	C95.206032,92.443466 93.445450,92.684967 91.742767,93.142113 
	C91.476395,93.213623 91.473312,94.265770 91.640381,95.493622 
	C91.948723,96.503136 91.965179,96.883499 91.981636,97.263870 
	C86.280739,97.447594 80.579834,97.631325 74.299065,97.351074 
	C68.817291,97.117287 63.915394,97.347481 59.013493,97.577675 
	C57.630470,97.656998 56.247452,97.736320 54.452263,97.391006 
	C54.143494,95.730270 54.246887,94.494179 54.350281,93.258087 
	C54.017479,93.170715 53.684677,93.083344 53.351875,92.995979 
	C52.390678,94.489761 51.429485,95.983536 50.468292,97.477318 
	C48.335831,97.776878 46.203369,98.076439 43.672466,98.694038 
	C43.274021,99.012077 42.903179,99.084824 42.749947,99.150932 
	C42.596714,99.217041 42.511097,99.646851 42.511097,99.646851 
	C42.511097,99.646851 42.891411,99.937340 42.906887,100.212227 
	C42.917240,100.670586 42.912113,100.854057 42.626572,101.340988 
	C42.228748,107.937637 42.328339,114.246971 41.862190,120.514244 
	C41.721672,122.403503 40.009701,124.175888 39.017586,126.001808 
	C39.017586,126.001808 38.622978,126.001404 38.425690,126.002884 
	C38.159031,116.929657 37.958210,107.853325 38.070065,98.780846 
	C38.136116,93.423645 40.343826,91.954971 47.744827,92.265450 
	C48.874355,92.400612 49.432987,92.265610 49.991615,92.130600 
	C55.358303,92.084724 60.724987,92.038849 66.850601,92.322845 
	C74.771957,93.995911 81.909920,94.341377 88.985161,92.128593 
	C91.348000,92.083618 93.710838,92.038651 96.510620,92.062347 
z"/>
<path fill="#C53345" opacity="1.000000" stroke="none" 
	d="
M39.065933,126.338409 
	C40.009701,124.175888 41.721672,122.403503 41.862190,120.514244 
	C42.328339,114.246971 42.228748,107.937637 42.710342,101.532814 
	C43.196198,101.688049 43.391884,101.879044 43.661591,101.994179 
	C43.730282,124.688156 43.798969,147.382126 43.647507,170.529144 
	C43.427357,170.982193 42.954788,170.996109 42.954788,170.996109 
	C42.636360,167.437775 42.137283,163.884354 42.040493,160.320007 
	C41.882736,154.510498 41.987640,148.693848 41.931850,142.102142 
	C41.271835,140.894913 40.661678,140.465759 40.051517,140.036621 
	C40.051517,140.036621 39.558464,140.011551 39.312721,139.997589 
	C39.066982,139.983643 39.041851,139.495529 39.047066,139.251251 
	C39.735592,138.148422 41.079521,137.210571 40.987656,136.445007 
	C40.593552,133.160690 39.776924,129.927094 39.065933,126.338409 
z"/>
<path fill="#F3C7CA" opacity="1.000000" stroke="none" 
	d="
M16.122639,132.444214 
	C22.798979,132.099960 29.823153,132.008682 37.296867,131.902802 
	C34.114220,132.242188 30.488459,132.759842 26.847979,132.902863 
	C23.396832,133.038452 19.930260,132.781494 16.122639,132.444214 
z"/>
<path fill="#F3C7CA" opacity="1.000000" stroke="none" 
	d="
M13.944063,131.431885 
	C14.143976,131.301651 14.454046,131.407043 14.886005,131.737915 
	C14.690002,131.864777 14.372111,131.766159 13.944063,131.431885 
z"/>
<path fill="#D04E5D" opacity="1.000000" stroke="none" 
	d="
M42.851929,171.294739 
	C42.954788,170.996109 43.427357,170.982193 43.663155,170.998581 
	C45.362915,171.266220 46.826885,171.517471 48.649708,172.129333 
	C49.013699,172.658981 49.018833,172.828018 49.023968,172.997070 
	C48.579582,172.999390 48.135197,173.001709 47.358047,173.008118 
	C45.603325,173.329636 44.181362,173.647079 42.392994,173.969330 
	C42.267414,173.180542 42.508240,172.386963 42.851929,171.294739 
z"/>
<path fill="#D04E5D" opacity="1.000000" stroke="none" 
	d="
M40.083664,140.344772 
	C40.661678,140.465759 41.271835,140.894913 41.916153,141.629669 
	C41.338810,141.507843 40.727310,141.080383 40.083664,140.344772 
z"/>
<path fill="#B5434E" opacity="1.000000" stroke="none" 
	d="
M46.709747,175.146271 
	C49.760742,175.350784 52.541294,175.938065 55.323368,175.945343 
	C82.241318,176.015778 109.159531,175.988846 136.548523,175.994354 
	C137.019363,175.998962 137.000931,176.445724 136.988220,176.668854 
	C106.280304,176.921799 75.585091,176.951614 44.428654,176.878052 
	C44.791630,176.269745 45.615818,175.764832 46.709747,175.146271 
z"/>
<path fill="#BD414C" opacity="1.000000" stroke="none" 
	d="
M24.561813,50.971367 
	C61.481380,50.975521 97.961159,50.991402 134.440933,51.003475 
	C143.900650,51.006607 153.363892,50.860935 162.817276,51.103939 
	C164.836227,51.155838 166.819397,52.599209 168.582550,53.782837 
	C168.346054,54.164131 167.891586,54.255974 167.891586,54.255974 
	C166.928879,53.752712 165.966187,53.249451 164.320404,52.471794 
	C161.078629,52.245560 158.519897,52.293720 155.961182,52.341881 
	C150.970322,52.316811 145.979462,52.291737 140.244843,52.209000 
	C139.311813,52.204720 139.122559,52.258102 138.933319,52.311489 
	C120.620270,52.281288 102.307220,52.251091 83.245422,52.183495 
	C82.308708,52.209572 82.120735,52.273048 81.932762,52.336525 
	C79.601593,52.312866 77.270424,52.289211 74.221443,52.204918 
	C73.312225,52.197449 73.120819,52.250614 72.929413,52.303776 
	C72.510605,52.276409 72.091805,52.249043 70.945206,52.139977 
	C68.797371,52.147011 67.377319,52.235744 65.957268,52.324478 
	C51.627296,52.296303 37.297325,52.268127 22.088352,52.152901 
	C19.474781,52.053543 17.740213,52.041233 16.005644,52.028927 
	C18.711103,51.679844 21.416563,51.330761 24.561813,50.971367 
z"/>
<path fill="#F4C2C3" opacity="1.000000" stroke="none" 
	d="
M15.930839,52.213440 
	C17.740213,52.041233 19.474781,52.053543 21.624268,52.192055 
	C20.214569,52.526661 18.389952,52.735062 16.155914,52.862122 
	C15.746491,52.780777 15.856033,52.397949 15.930839,52.213440 
z"/>
<path fill="#F3C7CA" opacity="1.000000" stroke="none" 
	d="
M14.746937,53.071545 
	C14.778436,53.306419 14.543740,53.554863 14.047555,53.824974 
	C14.017624,53.592800 14.249184,53.338955 14.746937,53.071545 
z"/>
<path fill="#FEFCFC" opacity="1.000000" stroke="none" 
	d="
M37.446404,21.105873 
	C37.846439,28.255709 37.935314,35.500187 37.884071,42.743671 
	C37.877132,43.724110 37.167034,44.699574 36.387711,45.685791 
	C35.995838,38.694321 35.949066,31.693678 36.050514,24.695185 
	C36.067471,23.525408 36.728020,22.364960 37.446404,21.105873 
z"/>
<path fill="#CA5361" opacity="1.000000" stroke="none" 
	d="
M33.452400,69.660721 
	C32.617290,71.544250 31.827965,73.353149 30.476871,74.500534 
	C30.118940,74.804497 27.517893,73.345467 26.904493,72.188278 
	C26.426342,71.286240 27.377722,68.472115 27.789465,68.451859 
	C29.603348,68.362617 31.451904,68.978226 33.452400,69.660721 
z"/>
<path fill="#D25362" opacity="1.000000" stroke="none" 
	d="
M88.525558,92.036552 
	C81.909920,94.341377 74.771957,93.995911 67.314941,92.392746 
	C74.035553,92.070015 81.050751,92.007263 88.525558,92.036552 
z"/>
<path fill="#F4C2C3" opacity="1.000000" stroke="none" 
	d="
M156.296509,52.568283 
	C158.519897,52.293720 161.078629,52.245560 163.993988,52.420547 
	C161.777710,52.694023 159.204788,52.744354 156.296509,52.568283 
z"/>
<path fill="#F4C2C3" opacity="1.000000" stroke="none" 
	d="
M66.227989,52.529083 
	C67.377319,52.235744 68.797371,52.147011 70.631828,52.174911 
	C69.530396,52.438923 68.014549,52.586308 66.227989,52.529083 
z"/>
<path fill="#D25362" opacity="1.000000" stroke="none" 
	d="
M49.665512,92.043091 
	C49.432987,92.265610 48.874355,92.400612 48.163818,92.333153 
	C48.454407,92.072327 48.896908,92.013962 49.665512,92.043091 
z"/>
<path fill="#F4C2C3" opacity="1.000000" stroke="none" 
	d="
M167.929153,54.544327 
	C167.891586,54.255974 168.346054,54.164131 168.577393,54.172195 
	C168.808716,54.180256 168.836945,54.154366 168.894684,54.377068 
	C168.952423,54.599770 169.262222,54.980236 169.262222,54.980236 
	C169.262222,54.980236 169.271759,55.430603 169.241791,55.653751 
	C168.796783,55.528824 168.381760,55.180752 167.929153,54.544327 
z"/>
<path fill="#F4C2C3" opacity="1.000000" stroke="none" 
	d="
M139.043503,52.456478 
	C139.122559,52.258102 139.311813,52.204720 139.783386,52.237099 
	C139.761673,52.415730 139.457687,52.508598 139.043503,52.456478 
z"/>
<path fill="#F4C2C3" opacity="1.000000" stroke="none" 
	d="
M82.046341,52.480309 
	C82.120735,52.273048 82.308708,52.209572 82.783463,52.226067 
	C82.766800,52.412056 82.463356,52.518070 82.046341,52.480309 
z"/>
<path fill="#F4C2C3" opacity="1.000000" stroke="none" 
	d="
M73.037460,52.452312 
	C73.120819,52.250614 73.312225,52.197449 73.785934,52.239990 
	C73.760666,52.424084 73.453087,52.512466 73.037460,52.452312 
z"/>
<path fill="#BD414C" opacity="1.000000" stroke="none" 
	d="
M169.433044,54.856525 
	C169.262222,54.980236 168.952423,54.599770 168.902084,54.360176 
	C169.042953,54.090130 169.234146,54.059681 169.715424,54.013927 
	C169.936996,54.279125 169.803116,54.523857 169.433044,54.856525 
z"/>
<path fill="#BD3C4C" opacity="1.000000" stroke="none" 
	d="
M42.484116,47.991570 
	C42.170017,36.160637 42.322781,24.330172 42.741096,12.251754 
	C43.274033,12.055650 43.541416,12.107499 44.095078,12.677573 
	C44.381355,24.103386 44.381355,35.010975 44.381355,46.616531 
	C48.827595,46.616531 52.927956,46.603123 57.028210,46.618740 
	C81.254112,46.711033 105.479996,46.810070 130.175079,46.951637 
	C132.809784,46.960548 134.975327,46.924660 137.350159,46.916946 
	C137.559464,46.945122 137.979782,46.986820 137.979782,46.986820 
	C137.988983,47.154072 137.998169,47.321323 138.016663,47.739555 
	C106.334305,47.991035 74.642647,47.991535 42.484116,47.991570 
z"/>
<path fill="#FDF8F9" opacity="1.000000" stroke="none" 
	d="
M129.705887,46.906837 
	C105.479996,46.810070 81.254112,46.711033 57.028210,46.618740 
	C52.927956,46.603123 48.827595,46.616531 44.381355,46.616531 
	C44.381355,35.010975 44.381355,24.103386 44.493958,12.765905 
	C74.267197,12.285268 103.927841,12.221395 133.588455,12.231189 
	C134.790421,12.231586 135.992142,12.927365 137.297852,14.118433 
	C137.310928,25.451721 137.220108,35.965733 136.707275,46.421844 
	C134.092133,46.544907 131.899002,46.725872 129.705887,46.906837 
z"/>
<path fill="#BF3744" opacity="1.000000" stroke="none" 
	d="
M137.129303,46.479744 
	C137.220108,35.965733 137.310928,25.451721 137.527023,14.486794 
	C138.095779,14.655600 138.927780,15.277229 138.924759,15.894764 
	C138.874878,26.067875 138.719864,36.240467 138.284119,46.699997 
	C137.979782,46.986820 137.559464,46.945122 137.338791,46.815357 
	C137.118118,46.685593 137.129303,46.479744 137.129303,46.479744 
z"/>
<path fill="#C65B64" opacity="1.000000" stroke="none" 
	d="
M64.289520,112.943176 
	C82.062500,112.941399 99.370415,112.916405 116.678154,112.961029 
	C119.013786,112.967049 122.418236,112.070610 122.502258,115.740349 
	C122.584824,119.345856 119.240646,118.828484 116.832809,118.833130 
	C99.192215,118.867218 81.551483,118.852982 63.910839,118.826332 
	C61.451309,118.822617 58.237816,119.203949 58.482250,115.636520 
	C58.551830,114.621033 61.951710,113.833748 64.289520,112.943176 
M100.499786,117.032730 
	C107.128052,117.032730 113.756317,117.032730 120.384583,117.032730 
	C120.361526,116.575966 120.338478,116.119209 120.315422,115.662445 
	C100.439392,115.662445 80.563362,115.662445 60.687336,115.662445 
	C60.687447,116.119110 60.687557,116.575768 60.687668,117.032433 
	C73.625061,117.032433 86.562454,117.032433 100.499786,117.032730 
z"/>
<path fill="#D1565F" opacity="1.000000" stroke="none" 
	d="
M120.989426,136.058380 
	C119.409409,136.375626 117.830498,136.962158 116.249191,136.968689 
	C99.528053,137.037766 82.806229,137.063446 66.085464,136.960434 
	C63.747280,136.946045 61.413757,136.174515 59.078075,135.753479 
	C58.873917,135.148773 58.669758,134.544083 58.465599,133.939377 
	C60.074902,133.030182 61.684204,132.120987 63.805202,131.676697 
	C66.035515,132.434494 67.753090,132.974442 69.472931,132.981766 
	C85.198936,133.048691 100.925331,133.023865 116.651619,133.023483 
	C118.809700,133.023438 121.227242,132.639694 120.989426,136.058380 
M107.387978,135.991852 
	C109.875237,135.991852 112.362495,135.991852 114.849754,135.991852 
	C114.839645,135.759445 114.829529,135.527054 114.819420,135.294647 
	C105.606598,135.294647 96.393784,135.294647 87.180962,135.294647 
	C87.180305,135.527374 87.179649,135.760101 87.178993,135.992828 
	C93.592453,135.992828 100.005920,135.992828 107.387978,135.991852 
z"/>
<path fill="#C04856" opacity="1.000000" stroke="none" 
	d="
M102.999260,149.834381 
	C108.484001,149.837646 113.481262,149.648087 118.445938,149.966446 
	C119.828407,150.055099 121.114510,151.646698 122.444817,152.548828 
	C121.189354,153.557220 119.943588,155.430054 118.676979,155.444260 
	C99.902863,155.654617 81.125473,155.678055 62.350838,155.515594 
	C61.008438,155.503983 59.681511,153.704086 58.347389,152.735687 
	C59.771599,151.772583 61.182411,149.996780 62.622097,149.973053 
	C75.911705,149.754059 89.206306,149.837814 102.999260,149.834381 
M65.127892,153.996338 
	C81.932335,153.995499 98.736946,154.027649 115.540985,153.944061 
	C117.267433,153.935486 118.990440,153.235138 120.715042,152.855789 
	C120.583061,152.211044 120.451073,151.566284 120.319084,150.921539 
	C100.812355,151.447113 81.269707,150.202469 61.780048,151.569595 
	C61.748627,152.076675 61.717201,152.583771 61.685780,153.090851 
	C62.553432,153.390182 63.421082,153.689499 65.127892,153.996338 
z"/>
<path fill="#C2444C" opacity="1.000000" stroke="none" 
	d="
M121.359726,135.900970 
	C121.227242,132.639694 118.809700,133.023438 116.651619,133.023483 
	C100.925331,133.023865 85.198936,133.048691 69.472931,132.981766 
	C67.753090,132.974442 66.035515,132.434494 64.184250,131.786240 
	C80.742393,131.358658 97.433197,131.286438 114.741814,131.453552 
	C115.888527,131.581268 116.417427,131.469635 116.946320,131.358002 
	C120.083679,131.137009 123.317223,130.811081 121.359726,135.900970 
z"/>
<path fill="#B83548" opacity="1.000000" stroke="none" 
	d="
M49.490166,172.997177 
	C49.018833,172.828018 49.013699,172.658981 49.008076,172.236206 
	C77.355042,171.927917 105.702499,171.873322 134.513977,171.876038 
	C134.991974,172.108246 135.005951,172.283142 135.041931,172.720184 
	C106.694756,172.987289 78.325554,172.992279 49.490166,172.997177 
z"/>
<path fill="#CA3747" opacity="1.000000" stroke="none" 
	d="
M115.248581,97.612320 
	C117.266617,96.085136 119.660751,93.580666 122.185638,93.441078 
	C126.549011,93.199837 130.998581,94.395660 135.391922,95.111786 
	C135.665009,95.156303 135.763779,96.270279 135.943024,97.227112 
	C129.189438,97.611473 122.436478,97.655411 115.248581,97.612320 
z"/>
<path fill="#CC394A" opacity="1.000000" stroke="none" 
	d="
M92.316322,97.467636 
	C91.965179,96.883499 91.948723,96.503136 91.960266,95.552139 
	C95.599953,94.980377 99.221085,94.828133 102.818588,95.053406 
	C104.231895,95.141914 105.592339,96.074890 107.071152,97.072357 
	C102.327301,97.571411 97.489151,97.621399 92.316322,97.467636 
z"/>
<path fill="#CC394A" opacity="1.000000" stroke="none" 
	d="
M59.469681,97.673187 
	C63.915394,97.347481 68.817291,97.117287 73.852219,97.245270 
	C69.298790,97.658539 64.612328,97.713623 59.469681,97.673187 
z"/>
<path fill="#D25362" opacity="1.000000" stroke="none" 
	d="
M50.796471,97.642776 
	C51.429485,95.983536 52.390678,94.489761 53.351875,92.995979 
	C53.684677,93.083344 54.017479,93.170715 54.350281,93.258087 
	C54.246887,94.494179 54.143494,95.730270 54.041229,97.315468 
	C53.069794,97.712456 52.097218,97.760345 50.796471,97.642776 
z"/>
<path fill="#D04E5D" opacity="1.000000" stroke="none" 
	d="
M43.771484,101.624992 
	C43.391884,101.879044 43.196198,101.688049 42.990761,101.229370 
	C42.912113,100.854057 42.917240,100.670586 42.929985,99.999725 
	C42.937603,99.512329 42.903179,99.084824 42.903179,99.084824 
	C42.903179,99.084824 43.274021,99.012077 43.462040,98.994751 
	C43.727165,99.736885 43.804272,100.496346 43.771484,101.624992 
z"/>
<path fill="#D1565F" opacity="1.000000" stroke="none" 
	d="
M116.638062,131.249878 
	C116.417427,131.469635 115.888527,131.581268 115.208923,131.522171 
	C115.482071,131.281525 115.905937,131.211624 116.638062,131.249878 
z"/>
<path fill="#C53345" opacity="1.000000" stroke="none" 
	d="
M42.749947,99.150932 
	C42.903179,99.084824 42.937603,99.512329 42.914505,99.724838 
	C42.891411,99.937340 42.511097,99.646851 42.511097,99.646851 
	C42.511097,99.646851 42.596714,99.217041 42.749947,99.150932 
z"/>
<path fill="#D3454F" opacity="1.000000" stroke="none" 
	d="
M136.707275,46.421844 
	C137.129303,46.479744 137.118118,46.685593 137.129486,46.787182 
	C134.975327,46.924660 132.809784,46.960548 130.175079,46.951633 
	C131.899002,46.725872 134.092133,46.544907 136.707275,46.421844 
z"/>
<path fill="#D93E4D" opacity="1.000000" stroke="none" 
	d="
M99.999817,117.032578 
	C86.562454,117.032433 73.625061,117.032433 60.687668,117.032433 
	C60.687557,116.575768 60.687447,116.119110 60.687336,115.662445 
	C80.563362,115.662445 100.439392,115.662445 120.315422,115.662445 
	C120.338478,116.119209 120.361526,116.575966 120.384583,117.032730 
	C113.756317,117.032730 107.128052,117.032730 99.999817,117.032578 
z"/>
<path fill="#C2444C" opacity="1.000000" stroke="none" 
	d="
M106.903687,135.992340 
	C100.005920,135.992828 93.592453,135.992828 87.178993,135.992828 
	C87.179649,135.760101 87.180305,135.527374 87.180962,135.294647 
	C96.393784,135.294647 105.606598,135.294647 114.819420,135.294647 
	C114.829529,135.527054 114.839645,135.759445 114.849754,135.991852 
	C112.362495,135.991852 109.875237,135.991852 106.903687,135.992340 
z"/>
<path fill="#D73A4C" opacity="1.000000" stroke="none" 
	d="
M64.708313,153.992584 
	C63.421082,153.689499 62.553432,153.390182 61.685780,153.090851 
	C61.717201,152.583771 61.748627,152.076675 61.780048,151.569595 
	C81.269707,150.202469 100.812355,151.447113 120.319084,150.921539 
	C120.451073,151.566284 120.583061,152.211044 120.715042,152.855789 
	C118.990440,153.235138 117.267433,153.935486 115.540985,153.944061 
	C98.736946,154.027649 81.932335,153.995499 64.708313,153.992584 
z"/>
</svg>